<svg width="102" height="68" viewBox="0 0 102 68" fill="none" xmlns="http://www.w3.org/2000/svg">
<path d="M15.5816 47.9995L19.4216 39.5995H20.2976L24.1376 47.9995H23.2016L19.6736 40.1155H20.0336L16.5056 47.9995H15.5816ZM17.0936 45.7555L17.3576 45.0355H22.2416L22.5056 45.7555H17.0936ZM26.9806 48.0595C26.4606 48.0595 25.9686 47.9875 25.5046 47.8435C25.0406 47.6915 24.6766 47.5035 24.4126 47.2795L24.7966 46.6075C25.0526 46.7995 25.3806 46.9675 25.7806 47.1115C26.1806 47.2475 26.6006 47.3155 27.0406 47.3155C27.6406 47.3155 28.0726 47.2235 28.3366 47.0395C28.6006 46.8475 28.7326 46.5955 28.7326 46.2835C28.7326 46.0515 28.6566 45.8715 28.5046 45.7435C28.3606 45.6075 28.1686 45.5075 27.9286 45.4435C27.6886 45.3715 27.4206 45.3115 27.1246 45.2635C26.8286 45.2155 26.5326 45.1595 26.2366 45.0955C25.9486 45.0315 25.6846 44.9395 25.4446 44.8195C25.2046 44.6915 25.0086 44.5195 24.8566 44.3035C24.7126 44.0875 24.6406 43.7995 24.6406 43.4395C24.6406 43.0955 24.7366 42.7875 24.9286 42.5155C25.1206 42.2435 25.4006 42.0315 25.7686 41.8795C26.1446 41.7195 26.6006 41.6395 27.1366 41.6395C27.5446 41.6395 27.9526 41.6955 28.3606 41.8075C28.7686 41.9115 29.1046 42.0515 29.3686 42.2275L28.9966 42.9115C28.7166 42.7195 28.4166 42.5835 28.0966 42.5035C27.7766 42.4155 27.4566 42.3715 27.1366 42.3715C26.5686 42.3715 26.1486 42.4715 25.8766 42.6715C25.6126 42.8635 25.4806 43.1115 25.4806 43.4155C25.4806 43.6555 25.5526 43.8435 25.6966 43.9795C25.8486 44.1155 26.0446 44.2235 26.2846 44.3035C26.5326 44.3755 26.8006 44.4355 27.0886 44.4835C27.3846 44.5315 27.6766 44.5915 27.9646 44.6635C28.2606 44.7275 28.5286 44.8195 28.7686 44.9395C29.0166 45.0515 29.2126 45.2155 29.3566 45.4315C29.5086 45.6395 29.5846 45.9155 29.5846 46.2595C29.5846 46.6275 29.4806 46.9475 29.2726 47.2195C29.0726 47.4835 28.7766 47.6915 28.3846 47.8435C28.0006 47.9875 27.5326 48.0595 26.9806 48.0595ZM32.84 48.0595C32.32 48.0595 31.828 47.9875 31.364 47.8435C30.9 47.6915 30.536 47.5035 30.272 47.2795L30.656 46.6075C30.912 46.7995 31.24 46.9675 31.64 47.1115C32.04 47.2475 32.46 47.3155 32.9 47.3155C33.5 47.3155 33.932 47.2235 34.196 47.0395C34.46 46.8475 34.592 46.5955 34.592 46.2835C34.592 46.0515 34.516 45.8715 34.364 45.7435C34.22 45.6075 34.028 45.5075 33.788 45.4435C33.548 45.3715 33.28 45.3115 32.984 45.2635C32.688 45.2155 32.392 45.1595 32.096 45.0955C31.808 45.0315 31.544 44.9395 31.304 44.8195C31.064 44.6915 30.868 44.5195 30.716 44.3035C30.572 44.0875 30.5 43.7995 30.5 43.4395C30.5 43.0955 30.596 42.7875 30.788 42.5155C30.98 42.2435 31.26 42.0315 31.628 41.8795C32.004 41.7195 32.46 41.6395 32.996 41.6395C33.404 41.6395 33.812 41.6955 34.22 41.8075C34.628 41.9115 34.964 42.0515 35.228 42.2275L34.856 42.9115C34.576 42.7195 34.276 42.5835 33.956 42.5035C33.636 42.4155 33.316 42.3715 32.996 42.3715C32.428 42.3715 32.008 42.4715 31.736 42.6715C31.472 42.8635 31.34 43.1115 31.34 43.4155C31.34 43.6555 31.412 43.8435 31.556 43.9795C31.708 44.1155 31.904 44.2235 32.144 44.3035C32.392 44.3755 32.66 44.4355 32.948 44.4835C33.244 44.5315 33.536 44.5915 33.824 44.6635C34.12 44.7275 34.388 44.8195 34.628 44.9395C34.876 45.0515 35.072 45.2155 35.216 45.4315C35.368 45.6395 35.444 45.9155 35.444 46.2595C35.444 46.6275 35.34 46.9475 35.132 47.2195C34.932 47.4835 34.636 47.6915 34.244 47.8435C33.86 47.9875 33.392 48.0595 32.84 48.0595ZM39.6833 48.0595C39.0273 48.0595 38.4513 47.9235 37.9553 47.6515C37.4593 47.3715 37.0713 46.9915 36.7913 46.5115C36.5113 46.0235 36.3713 45.4675 36.3713 44.8435C36.3713 44.2195 36.5033 43.6675 36.7673 43.1875C37.0393 42.7075 37.4073 42.3315 37.8713 42.0595C38.3433 41.7795 38.8713 41.6395 39.4553 41.6395C40.0473 41.6395 40.5713 41.7755 41.0273 42.0475C41.4913 42.3115 41.8553 42.6875 42.1193 43.1755C42.3833 43.6555 42.5153 44.2115 42.5153 44.8435C42.5153 44.8835 42.5113 44.9275 42.5033 44.9755C42.5033 45.0155 42.5033 45.0595 42.5033 45.1075H37.0193V44.4715H42.0473L41.7113 44.7235C41.7113 44.2675 41.6113 43.8635 41.4113 43.5115C41.2193 43.1515 40.9553 42.8715 40.6193 42.6715C40.2833 42.4715 39.8953 42.3715 39.4553 42.3715C39.0233 42.3715 38.6353 42.4715 38.2913 42.6715C37.9473 42.8715 37.6793 43.1515 37.4873 43.5115C37.2953 43.8715 37.1993 44.2835 37.1993 44.7475V44.8795C37.1993 45.3595 37.3033 45.7835 37.5113 46.1515C37.7273 46.5115 38.0233 46.7955 38.3993 47.0035C38.7833 47.2035 39.2193 47.3035 39.7073 47.3035C40.0913 47.3035 40.4473 47.2355 40.7753 47.0995C41.1113 46.9635 41.3993 46.7555 41.6393 46.4755L42.1193 47.0275C41.8393 47.3635 41.4873 47.6195 41.0633 47.7955C40.6473 47.9715 40.1873 48.0595 39.6833 48.0595ZM52.1215 41.6395C52.6335 41.6395 53.0775 41.7395 53.4535 41.9395C53.8375 42.1315 54.1335 42.4275 54.3415 42.8275C54.5575 43.2275 54.6655 43.7315 54.6655 44.3395V47.9995H53.8135V44.4235C53.8135 43.7595 53.6535 43.2595 53.3335 42.9235C53.0215 42.5795 52.5775 42.4075 52.0015 42.4075C51.5695 42.4075 51.1935 42.4995 50.8735 42.6835C50.5615 42.8595 50.3175 43.1195 50.1415 43.4635C49.9735 43.7995 49.8895 44.2075 49.8895 44.6875V47.9995H49.0375V44.4235C49.0375 43.7595 48.8775 43.2595 48.5575 42.9235C48.2375 42.5795 47.7895 42.4075 47.2135 42.4075C46.7895 42.4075 46.4175 42.4995 46.0975 42.6835C45.7775 42.8595 45.5295 43.1195 45.3535 43.4635C45.1855 43.7995 45.1015 44.2075 45.1015 44.6875V47.9995H44.2495V41.6995H45.0655V43.4035L44.9335 43.1035C45.1255 42.6475 45.4335 42.2915 45.8575 42.0355C46.2895 41.7715 46.7975 41.6395 47.3815 41.6395C47.9975 41.6395 48.5215 41.7955 48.9535 42.1075C49.3855 42.4115 49.6655 42.8715 49.7935 43.4875L49.4575 43.3555C49.6415 42.8435 49.9655 42.4315 50.4295 42.1195C50.9015 41.7995 51.4655 41.6395 52.1215 41.6395ZM60.2281 48.0595C59.6761 48.0595 59.1801 47.9355 58.7401 47.6875C58.3001 47.4315 57.9521 47.0635 57.6961 46.5835C57.4401 46.1035 57.3121 45.5235 57.3121 44.8435C57.3121 44.1555 57.4401 43.5755 57.6961 43.1035C57.9601 42.6235 58.3121 42.2595 58.7521 42.0115C59.1921 41.7635 59.6841 41.6395 60.2281 41.6395C60.8281 41.6395 61.3641 41.7755 61.8361 42.0475C62.3161 42.3115 62.6921 42.6835 62.9641 43.1635C63.2361 43.6435 63.3721 44.2035 63.3721 44.8435C63.3721 45.4755 63.2361 46.0355 62.9641 46.5235C62.6921 47.0035 62.3161 47.3795 61.8361 47.6515C61.3641 47.9235 60.8281 48.0595 60.2281 48.0595ZM56.9761 47.9995V39.0955H57.8281V43.5595L57.7081 44.8315L57.7921 46.1035V47.9995H56.9761ZM60.1681 47.3035C60.6161 47.3035 61.0161 47.2035 61.3681 47.0035C61.7201 46.7955 62.0001 46.5075 62.2081 46.1395C62.4161 45.7635 62.5201 45.3315 62.5201 44.8435C62.5201 44.3475 62.4161 43.9155 62.2081 43.5475C62.0001 43.1795 61.7201 42.8955 61.3681 42.6955C61.0161 42.4875 60.6161 42.3835 60.1681 42.3835C59.7201 42.3835 59.3161 42.4875 58.9561 42.6955C58.6041 42.8955 58.3241 43.1795 58.1161 43.5475C57.9161 43.9155 57.8161 44.3475 57.8161 44.8435C57.8161 45.3315 57.9161 45.7635 58.1161 46.1395C58.3241 46.5075 58.6041 46.7955 58.9561 47.0035C59.3161 47.2035 59.7201 47.3035 60.1681 47.3035ZM65.1089 47.9995V39.0955H65.9609V47.9995H65.1089ZM71.0076 48.0595C70.3516 48.0595 69.7756 47.9235 69.2796 47.6515C68.7836 47.3715 68.3956 46.9915 68.1156 46.5115C67.8356 46.0235 67.6956 45.4675 67.6956 44.8435C67.6956 44.2195 67.8276 43.6675 68.0916 43.1875C68.3636 42.7075 68.7316 42.3315 69.1956 42.0595C69.6676 41.7795 70.1956 41.6395 70.7796 41.6395C71.3716 41.6395 71.8956 41.7755 72.3516 42.0475C72.8156 42.3115 73.1796 42.6875 73.4436 43.1755C73.7076 43.6555 73.8396 44.2115 73.8396 44.8435C73.8396 44.8835 73.8356 44.9275 73.8276 44.9755C73.8276 45.0155 73.8276 45.0595 73.8276 45.1075H68.3436V44.4715H73.3716L73.0356 44.7235C73.0356 44.2675 72.9356 43.8635 72.7356 43.5115C72.5436 43.1515 72.2796 42.8715 71.9436 42.6715C71.6076 42.4715 71.2196 42.3715 70.7796 42.3715C70.3476 42.3715 69.9596 42.4715 69.6156 42.6715C69.2716 42.8715 69.0036 43.1515 68.8116 43.5115C68.6196 43.8715 68.5236 44.2835 68.5236 44.7475V44.8795C68.5236 45.3595 68.6276 45.7835 68.8356 46.1515C69.0516 46.5115 69.3476 46.7955 69.7236 47.0035C70.1076 47.2035 70.5436 47.3035 71.0316 47.3035C71.4156 47.3035 71.7716 47.2355 72.0996 47.0995C72.4356 46.9635 72.7236 46.7555 72.9636 46.4755L73.4436 47.0275C73.1636 47.3635 72.8116 47.6195 72.3876 47.7955C71.9716 47.9715 71.5116 48.0595 71.0076 48.0595ZM80.9344 48.0715C80.3904 48.0715 79.9064 47.9835 79.4824 47.8075C79.0584 47.6235 78.7224 47.3715 78.4744 47.0515C78.2344 46.7315 78.1144 46.3595 78.1144 45.9355C78.1144 45.5755 78.1944 45.2475 78.3544 44.9515C78.5144 44.6475 78.7704 44.3515 79.1224 44.0635C79.4824 43.7675 79.9584 43.4595 80.5504 43.1395C81.0544 42.8595 81.4464 42.6195 81.7264 42.4195C82.0144 42.2115 82.2184 42.0155 82.3384 41.8315C82.4584 41.6395 82.5184 41.4355 82.5184 41.2195C82.5184 40.9075 82.4104 40.6555 82.1944 40.4635C81.9864 40.2715 81.6864 40.1755 81.2944 40.1755C80.8704 40.1755 80.5424 40.2835 80.3104 40.4995C80.0784 40.7075 79.9624 40.9795 79.9624 41.3155C79.9624 41.4835 79.9864 41.6435 80.0344 41.7955C80.0904 41.9475 80.1904 42.1155 80.3344 42.2995C80.4864 42.4835 80.6944 42.7155 80.9584 42.9955L85.3984 47.5675L84.9064 48.1315L80.2744 43.3675C79.9944 43.0715 79.7704 42.8155 79.6024 42.5995C79.4424 42.3755 79.3304 42.1635 79.2664 41.9635C79.2024 41.7635 79.1704 41.5515 79.1704 41.3275C79.1704 40.9675 79.2544 40.6555 79.4224 40.3915C79.5984 40.1195 79.8464 39.9115 80.1664 39.7675C80.4864 39.6155 80.8624 39.5395 81.2944 39.5395C81.6864 39.5395 82.0264 39.6075 82.3144 39.7435C82.6104 39.8715 82.8384 40.0595 82.9984 40.3075C83.1664 40.5555 83.2504 40.8555 83.2504 41.2075C83.2504 41.5115 83.1744 41.7955 83.0224 42.0595C82.8784 42.3235 82.6384 42.5835 82.3024 42.8395C81.9664 43.0875 81.5104 43.3675 80.9344 43.6795C80.4304 43.9595 80.0304 44.2155 79.7344 44.4475C79.4464 44.6795 79.2424 44.9075 79.1224 45.1315C79.0024 45.3475 78.9424 45.5875 78.9424 45.8515C78.9424 46.1555 79.0264 46.4235 79.1944 46.6555C79.3704 46.8795 79.6104 47.0555 79.9144 47.1835C80.2264 47.3035 80.5824 47.3635 80.9824 47.3635C81.5424 47.3635 82.0424 47.2475 82.4824 47.0155C82.9224 46.7835 83.2904 46.4315 83.5864 45.9595C83.8904 45.4875 84.1104 44.8955 84.2464 44.1835L84.9304 44.3995C84.7784 45.1995 84.5184 45.8715 84.1504 46.4155C83.7824 46.9595 83.3264 47.3715 82.7824 47.6515C82.2384 47.9315 81.6224 48.0715 80.9344 48.0715ZM1.58577 63.9995V55.5995H4.72977C5.44177 55.5995 6.05377 55.7155 6.56577 55.9475C7.07777 56.1715 7.46977 56.4995 7.74177 56.9315C8.02177 57.3555 8.16177 57.8715 8.16177 58.4795C8.16177 59.0715 8.02177 59.5835 7.74177 60.0155C7.46977 60.4395 7.07777 60.7675 6.56577 60.9995C6.05377 61.2315 5.44177 61.3475 4.72977 61.3475H2.07777L2.47377 60.9275V63.9995H1.58577ZM2.47377 60.9995L2.07777 60.5675H4.70577C5.54577 60.5675 6.18177 60.3875 6.61377 60.0275C7.05377 59.6595 7.27377 59.1435 7.27377 58.4795C7.27377 57.8075 7.05377 57.2875 6.61377 56.9195C6.18177 56.5515 5.54577 56.3675 4.70577 56.3675H2.07777L2.47377 55.9475V60.9995ZM9.74952 63.9995V57.6995H10.5655V59.4155L10.4815 59.1155C10.6575 58.6355 10.9535 58.2715 11.3695 58.0235C11.7855 57.7675 12.3015 57.6395 12.9175 57.6395V58.4675C12.8855 58.4675 12.8535 58.4675 12.8215 58.4675C12.7895 58.4595 12.7575 58.4555 12.7255 58.4555C12.0615 58.4555 11.5415 58.6595 11.1655 59.0675C10.7895 59.4675 10.6015 60.0395 10.6015 60.7835V63.9995H9.74952ZM16.9816 64.0595C16.3736 64.0595 15.8256 63.9235 15.3376 63.6515C14.8576 63.3715 14.4776 62.9915 14.1976 62.5115C13.9176 62.0235 13.7776 61.4675 13.7776 60.8435C13.7776 60.2115 13.9176 59.6555 14.1976 59.1755C14.4776 58.6955 14.8576 58.3195 15.3376 58.0475C15.8176 57.7755 16.3656 57.6395 16.9816 57.6395C17.6056 57.6395 18.1576 57.7755 18.6376 58.0475C19.1256 58.3195 19.5056 58.6955 19.7776 59.1755C20.0576 59.6555 20.1976 60.2115 20.1976 60.8435C20.1976 61.4675 20.0576 62.0235 19.7776 62.5115C19.5056 62.9915 19.1256 63.3715 18.6376 63.6515C18.1496 63.9235 17.5976 64.0595 16.9816 64.0595ZM16.9816 63.3035C17.4376 63.3035 17.8416 63.2035 18.1936 63.0035C18.5456 62.7955 18.8216 62.5075 19.0216 62.1395C19.2296 61.7635 19.3336 61.3315 19.3336 60.8435C19.3336 60.3475 19.2296 59.9155 19.0216 59.5475C18.8216 59.1795 18.5456 58.8955 18.1936 58.6955C17.8416 58.4875 17.4416 58.3835 16.9936 58.3835C16.5456 58.3835 16.1456 58.4875 15.7936 58.6955C15.4416 58.8955 15.1616 59.1795 14.9536 59.5475C14.7456 59.9155 14.6416 60.3475 14.6416 60.8435C14.6416 61.3315 14.7456 61.7635 14.9536 62.1395C15.1616 62.5075 15.4416 62.7955 15.7936 63.0035C16.1456 63.2035 16.5416 63.3035 16.9816 63.3035ZM24.445 64.0595C23.845 64.0595 23.305 63.9235 22.825 63.6515C22.353 63.3795 21.981 63.0035 21.709 62.5235C21.437 62.0355 21.301 61.4755 21.301 60.8435C21.301 60.2035 21.437 59.6435 21.709 59.1635C21.981 58.6835 22.353 58.3115 22.825 58.0475C23.305 57.7755 23.845 57.6395 24.445 57.6395C24.997 57.6395 25.489 57.7635 25.921 58.0115C26.361 58.2595 26.709 58.6235 26.965 59.1035C27.229 59.5755 27.361 60.1555 27.361 60.8435C27.361 61.5235 27.233 62.1035 26.977 62.5835C26.721 63.0635 26.373 63.4315 25.933 63.6875C25.501 63.9355 25.005 64.0595 24.445 64.0595ZM24.505 63.3035C24.953 63.3035 25.353 63.2035 25.705 63.0035C26.065 62.7955 26.345 62.5075 26.545 62.1395C26.753 61.7635 26.857 61.3315 26.857 60.8435C26.857 60.3475 26.753 59.9155 26.545 59.5475C26.345 59.1795 26.065 58.8955 25.705 58.6955C25.353 58.4875 24.953 58.3835 24.505 58.3835C24.065 58.3835 23.669 58.4875 23.317 58.6955C22.965 58.8955 22.685 59.1795 22.477 59.5475C22.269 59.9155 22.165 60.3475 22.165 60.8435C22.165 61.3315 22.269 61.7635 22.477 62.1395C22.685 62.5075 22.965 62.7955 23.317 63.0035C23.669 63.2035 24.065 63.3035 24.505 63.3035ZM26.881 63.9995V62.1035L26.965 60.8315L26.845 59.5595V55.0955H27.697V63.9995H26.881ZM32.6738 64.0595C32.1378 64.0595 31.6698 63.9595 31.2698 63.7595C30.8698 63.5595 30.5578 63.2595 30.3338 62.8595C30.1178 62.4595 30.0098 61.9595 30.0098 61.3595V57.6995H30.8618V61.2635C30.8618 61.9355 31.0258 62.4435 31.3538 62.7875C31.6898 63.1235 32.1578 63.2915 32.7578 63.2915C33.1978 63.2915 33.5778 63.2035 33.8978 63.0275C34.2258 62.8435 34.4738 62.5795 34.6418 62.2355C34.8178 61.8915 34.9058 61.4795 34.9058 60.9995V57.6995H35.7578V63.9995H34.9418V62.2715L35.0738 62.5835C34.8738 63.0475 34.5618 63.4115 34.1378 63.6755C33.7218 63.9315 33.2338 64.0595 32.6738 64.0595ZM40.7483 64.0595C40.1243 64.0595 39.5643 63.9235 39.0683 63.6515C38.5803 63.3715 38.1963 62.9915 37.9163 62.5115C37.6363 62.0235 37.4963 61.4675 37.4963 60.8435C37.4963 60.2115 37.6363 59.6555 37.9163 59.1755C38.1963 58.6955 38.5803 58.3195 39.0683 58.0475C39.5643 57.7755 40.1243 57.6395 40.7483 57.6395C41.2843 57.6395 41.7683 57.7435 42.2003 57.9515C42.6323 58.1595 42.9723 58.4715 43.2203 58.8875L42.5843 59.3195C42.3683 58.9995 42.1003 58.7635 41.7803 58.6115C41.4603 58.4595 41.1123 58.3835 40.7363 58.3835C40.2883 58.3835 39.8843 58.4875 39.5243 58.6955C39.1643 58.8955 38.8803 59.1795 38.6723 59.5475C38.4643 59.9155 38.3603 60.3475 38.3603 60.8435C38.3603 61.3395 38.4643 61.7715 38.6723 62.1395C38.8803 62.5075 39.1643 62.7955 39.5243 63.0035C39.8843 63.2035 40.2883 63.3035 40.7363 63.3035C41.1123 63.3035 41.4603 63.2275 41.7803 63.0755C42.1003 62.9235 42.3683 62.6915 42.5843 62.3795L43.2203 62.8115C42.9723 63.2195 42.6323 63.5315 42.2003 63.7475C41.7683 63.9555 41.2843 64.0595 40.7483 64.0595ZM46.9564 64.0595C46.3644 64.0595 45.9084 63.8995 45.5884 63.5795C45.2684 63.2595 45.1084 62.8075 45.1084 62.2235V56.3075H45.9604V62.1755C45.9604 62.5435 46.0524 62.8275 46.2364 63.0275C46.4284 63.2275 46.7004 63.3275 47.0524 63.3275C47.4284 63.3275 47.7404 63.2195 47.9884 63.0035L48.2884 63.6155C48.1204 63.7675 47.9164 63.8795 47.6764 63.9515C47.4444 64.0235 47.2044 64.0595 46.9564 64.0595ZM43.9804 58.4075V57.6995H47.8804V58.4075H43.9804ZM55.476 64.0715C54.852 64.0715 54.252 63.9715 53.676 63.7715C53.108 63.5635 52.668 63.2995 52.356 62.9795L52.704 62.2955C53 62.5835 53.396 62.8275 53.892 63.0275C54.396 63.2195 54.924 63.3155 55.476 63.3155C56.004 63.3155 56.432 63.2515 56.76 63.1235C57.096 62.9875 57.34 62.8075 57.492 62.5835C57.652 62.3595 57.732 62.1115 57.732 61.8395C57.732 61.5115 57.636 61.2475 57.444 61.0475C57.26 60.8475 57.016 60.6915 56.712 60.5795C56.408 60.4595 56.072 60.3555 55.704 60.2675C55.336 60.1795 54.968 60.0875 54.6 59.9915C54.232 59.8875 53.892 59.7515 53.58 59.5835C53.276 59.4155 53.028 59.1955 52.836 58.9235C52.652 58.6435 52.56 58.2795 52.56 57.8315C52.56 57.4155 52.668 57.0355 52.884 56.6915C53.108 56.3395 53.448 56.0595 53.904 55.8515C54.36 55.6355 54.944 55.5275 55.656 55.5275C56.128 55.5275 56.596 55.5955 57.06 55.7315C57.524 55.8595 57.924 56.0395 58.26 56.2715L57.96 56.9795C57.6 56.7395 57.216 56.5635 56.808 56.4515C56.408 56.3395 56.02 56.2835 55.644 56.2835C55.14 56.2835 54.724 56.3515 54.396 56.4875C54.068 56.6235 53.824 56.8075 53.664 57.0395C53.512 57.2635 53.436 57.5195 53.436 57.8075C53.436 58.1355 53.528 58.3995 53.712 58.5995C53.904 58.7995 54.152 58.9555 54.456 59.0675C54.768 59.1795 55.108 59.2795 55.476 59.3675C55.844 59.4555 56.208 59.5515 56.568 59.6555C56.936 59.7595 57.272 59.8955 57.576 60.0635C57.888 60.2235 58.136 60.4395 58.32 60.7115C58.512 60.9835 58.608 61.3395 58.608 61.7795C58.608 62.1875 58.496 62.5675 58.272 62.9195C58.048 63.2635 57.704 63.5435 57.24 63.7595C56.784 63.9675 56.196 64.0715 55.476 64.0715ZM62.9668 64.0595C62.4308 64.0595 61.9628 63.9595 61.5628 63.7595C61.1628 63.5595 60.8508 63.2595 60.6268 62.8595C60.4108 62.4595 60.3028 61.9595 60.3028 61.3595V57.6995H61.1548V61.2635C61.1548 61.9355 61.3188 62.4435 61.6468 62.7875C61.9828 63.1235 62.4508 63.2915 63.0508 63.2915C63.4908 63.2915 63.8708 63.2035 64.1908 63.0275C64.5188 62.8435 64.7668 62.5795 64.9348 62.2355C65.1108 61.8915 65.1988 61.4795 65.1988 60.9995V57.6995H66.0508V63.9995H65.2348V62.2715L65.3668 62.5835C65.1668 63.0475 64.8548 63.4115 64.4308 63.6755C64.0148 63.9315 63.5268 64.0595 62.9668 64.0595ZM71.6773 64.0595C71.1333 64.0595 70.6413 63.9355 70.2013 63.6875C69.7613 63.4315 69.4093 63.0675 69.1453 62.5955C68.8893 62.1155 68.7613 61.5315 68.7613 60.8435C68.7613 60.1555 68.8893 59.5755 69.1453 59.1035C69.4013 58.6235 69.7493 58.2595 70.1893 58.0115C70.6293 57.7635 71.1253 57.6395 71.6773 57.6395C72.2773 57.6395 72.8133 57.7755 73.2853 58.0475C73.7653 58.3115 74.1413 58.6875 74.4133 59.1755C74.6853 59.6555 74.8213 60.2115 74.8213 60.8435C74.8213 61.4835 74.6853 62.0435 74.4133 62.5235C74.1413 63.0035 73.7653 63.3795 73.2853 63.6515C72.8133 63.9235 72.2773 64.0595 71.6773 64.0595ZM68.4253 66.3275V57.6995H69.2413V59.5955L69.1573 60.8555L69.2773 62.1275V66.3275H68.4253ZM71.6173 63.3035C72.0653 63.3035 72.4653 63.2035 72.8173 63.0035C73.1693 62.7955 73.4493 62.5075 73.6573 62.1395C73.8653 61.7635 73.9693 61.3315 73.9693 60.8435C73.9693 60.3555 73.8653 59.9275 73.6573 59.5595C73.4493 59.1915 73.1693 58.9035 72.8173 58.6955C72.4653 58.4875 72.0653 58.3835 71.6173 58.3835C71.1693 58.3835 70.7653 58.4875 70.4053 58.6955C70.0533 58.9035 69.7733 59.1915 69.5653 59.5595C69.3653 59.9275 69.2653 60.3555 69.2653 60.8435C69.2653 61.3315 69.3653 61.7635 69.5653 62.1395C69.7733 62.5075 70.0533 62.7955 70.4053 63.0035C70.7653 63.2035 71.1693 63.3035 71.6173 63.3035ZM79.8101 64.0595C79.2661 64.0595 78.7741 63.9355 78.3341 63.6875C77.8941 63.4315 77.5421 63.0675 77.2781 62.5955C77.0221 62.1155 76.8941 61.5315 76.8941 60.8435C76.8941 60.1555 77.0221 59.5755 77.2781 59.1035C77.5341 58.6235 77.8821 58.2595 78.3221 58.0115C78.7621 57.7635 79.2581 57.6395 79.8101 57.6395C80.4101 57.6395 80.9461 57.7755 81.4181 58.0475C81.8981 58.3115 82.2741 58.6875 82.5461 59.1755C82.8181 59.6555 82.9541 60.2115 82.9541 60.8435C82.9541 61.4835 82.8181 62.0435 82.5461 62.5235C82.2741 63.0035 81.8981 63.3795 81.4181 63.6515C80.9461 63.9235 80.4101 64.0595 79.8101 64.0595ZM76.5581 66.3275V57.6995H77.3741V59.5955L77.2901 60.8555L77.4101 62.1275V66.3275H76.5581ZM79.7501 63.3035C80.1981 63.3035 80.5981 63.2035 80.9501 63.0035C81.3021 62.7955 81.5821 62.5075 81.7901 62.1395C81.9981 61.7635 82.1021 61.3315 82.1021 60.8435C82.1021 60.3555 81.9981 59.9275 81.7901 59.5595C81.5821 59.1915 81.3021 58.9035 80.9501 58.6955C80.5981 58.4875 80.1981 58.3835 79.7501 58.3835C79.3021 58.3835 78.8981 58.4875 78.5381 58.6955C78.1861 58.9035 77.9061 59.1915 77.6981 59.5595C77.4981 59.9275 77.3981 60.3555 77.3981 60.8435C77.3981 61.3315 77.4981 61.7635 77.6981 62.1395C77.9061 62.5075 78.1861 62.7955 78.5381 63.0035C78.8981 63.2035 79.3021 63.3035 79.7501 63.3035ZM87.2589 64.0595C86.6509 64.0595 86.1029 63.9235 85.6149 63.6515C85.1349 63.3715 84.7549 62.9915 84.4749 62.5115C84.1949 62.0235 84.0549 61.4675 84.0549 60.8435C84.0549 60.2115 84.1949 59.6555 84.4749 59.1755C84.7549 58.6955 85.1349 58.3195 85.6149 58.0475C86.0949 57.7755 86.6429 57.6395 87.2589 57.6395C87.8829 57.6395 88.4349 57.7755 88.9149 58.0475C89.4029 58.3195 89.7829 58.6955 90.0549 59.1755C90.3349 59.6555 90.4749 60.2115 90.4749 60.8435C90.4749 61.4675 90.3349 62.0235 90.0549 62.5115C89.7829 62.9915 89.4029 63.3715 88.9149 63.6515C88.4269 63.9235 87.8749 64.0595 87.2589 64.0595ZM87.2589 63.3035C87.7149 63.3035 88.1189 63.2035 88.4709 63.0035C88.8229 62.7955 89.0989 62.5075 89.2989 62.1395C89.5069 61.7635 89.6109 61.3315 89.6109 60.8435C89.6109 60.3475 89.5069 59.9155 89.2989 59.5475C89.0989 59.1795 88.8229 58.8955 88.4709 58.6955C88.1189 58.4875 87.7189 58.3835 87.2709 58.3835C86.8229 58.3835 86.4229 58.4875 86.0709 58.6955C85.7189 58.8955 85.4389 59.1795 85.2309 59.5475C85.0229 59.9155 84.9189 60.3475 84.9189 60.8435C84.9189 61.3315 85.0229 61.7635 85.2309 62.1395C85.4389 62.5075 85.7189 62.7955 86.0709 63.0035C86.4229 63.2035 86.8189 63.3035 87.2589 63.3035ZM92.2144 63.9995V57.6995H93.0304V59.4155L92.9464 59.1155C93.1224 58.6355 93.4184 58.2715 93.8344 58.0235C94.2504 57.7675 94.7664 57.6395 95.3824 57.6395V58.4675C95.3504 58.4675 95.3184 58.4675 95.2864 58.4675C95.2544 58.4595 95.2224 58.4555 95.1904 58.4555C94.5264 58.4555 94.0064 58.6595 93.6304 59.0675C93.2544 59.4675 93.0664 60.0395 93.0664 60.7835V63.9995H92.2144ZM99.1986 64.0595C98.6066 64.0595 98.1506 63.8995 97.8306 63.5795C97.5106 63.2595 97.3506 62.8075 97.3506 62.2235V56.3075H98.2026V62.1755C98.2026 62.5435 98.2946 62.8275 98.4786 63.0275C98.6706 63.2275 98.9426 63.3275 99.2946 63.3275C99.6706 63.3275 99.9826 63.2195 100.231 63.0035L100.531 63.6155C100.363 63.7675 100.159 63.8795 99.9186 63.9515C99.6866 64.0235 99.4466 64.0595 99.1986 64.0595ZM96.2226 58.4075V57.6995H100.123V58.4075H96.2226Z" fill="#414141"/>
<path d="M15.5576 49.4995H85.5544V50.0995H15.5576V49.4995ZM0.217773 65.4995H100.891V66.0995H0.217773V65.4995Z" fill="#414141"/>
<g opacity="0.82">
<path d="M64.3728 23.1923C64.0931 22.3532 63.3198 21.8102 62.4148 21.7773C61.8883 21.7608 61.4111 21.9254 60.9504 22.1557C59.5683 22.8797 58.1862 23.5872 56.804 24.2947C56.5737 24.4099 56.3598 24.5909 56.0801 24.3441C55.57 23.8999 54.9283 23.834 54.2866 23.834C53.5133 23.8176 52.7235 23.8011 51.9501 23.834C51.3578 23.8669 50.9135 23.686 50.4693 23.2911C48.9391 21.9254 47.1621 21.2837 45.0889 21.7279C44.4307 21.876 43.8055 22.1228 43.1473 22.3203C42.4727 22.5177 41.8145 22.6823 41.3209 21.8925C41.0741 21.4811 40.564 21.3495 40.0704 21.3495C39.2971 21.333 38.5073 21.333 37.734 21.3495C36.7303 21.3824 36.0721 22.0406 36.0557 23.0278C36.0557 25.1174 36.0557 27.2235 36.0721 29.3461C36.0886 30.3827 36.7303 31.0244 37.7669 31.0409C38.5073 31.0573 39.2477 31.0244 39.9717 31.0409C40.6463 31.0573 41.1728 30.8105 41.5348 30.2511C41.65 30.0701 41.7652 29.922 42.012 29.922C42.5385 29.9384 43.065 29.8891 43.5916 30.0372C46.1748 30.7447 48.7581 31.4357 51.3578 32.1433C51.5552 32.1926 51.7691 32.2091 51.9008 32.3901H53.6284C54.7802 31.9952 55.8004 31.3535 56.7547 30.6295C57.0838 30.3827 57.2812 30.0701 57.0015 29.6916C56.7218 29.3132 56.3598 29.3955 56.0307 29.6258C55.5865 29.922 55.1587 30.2346 54.7144 30.5308C53.8094 31.1396 52.8551 31.3206 51.7856 30.9915C50.7984 30.6953 49.8276 30.4156 48.8239 30.1852C46.6026 29.6916 44.4801 28.7044 42.1436 28.7044C41.8639 28.7044 41.7981 28.5234 41.7981 28.293C41.7981 26.8945 41.7981 25.5123 41.7981 24.1138C41.7981 23.834 41.9133 23.6695 42.193 23.686C43.0486 23.7518 43.789 23.3898 44.5623 23.1265C46.3064 22.5342 47.9683 22.7152 49.3175 23.9821C50.2718 24.8871 51.292 25.1833 52.5425 25.0681C53.0855 25.0187 53.6449 25.0516 54.2043 25.0681C54.4347 25.0681 54.665 25.0845 54.8789 25.1339C55.389 25.2491 55.751 25.7262 55.6852 26.2199C55.6194 26.7464 55.3067 27.0755 54.7638 27.1248C54.5169 27.1577 54.2701 27.1413 54.0233 27.1413C52.4931 27.1413 50.9465 27.1413 49.4162 27.1577C49.0049 27.1577 48.6594 27.3058 48.6594 27.783C48.6594 28.2601 49.0049 28.3918 49.4162 28.3918C51.1768 28.3918 52.9374 28.4082 54.6979 28.3753C55.9978 28.3424 56.8863 27.4374 56.9028 26.154C56.9028 25.7427 57.0673 25.5288 57.4128 25.3643C58.795 24.6732 60.1442 23.9657 61.5099 23.2746C61.7567 23.143 61.987 23.0607 62.2667 23.0607C62.6452 23.0607 62.9578 23.1923 63.1223 23.5379C63.2869 23.8834 63.2704 24.2289 63.0236 24.5251C62.8591 24.7225 62.6452 24.9035 62.4313 25.0516C61.8554 25.4794 61.2631 25.8743 60.6872 26.3021C60.3745 26.5325 60.2265 26.8451 60.4897 27.2071C60.7201 27.5197 61.0492 27.5526 61.3618 27.3387C62.1516 26.7793 62.9578 26.2692 63.6818 25.6275C64.4551 24.9694 64.7019 24.1138 64.3728 23.1923ZM40.5147 29.2967C40.4982 29.6916 40.2843 29.8233 39.9223 29.8233C39.2642 29.8068 38.606 29.8068 37.9643 29.8233C37.5036 29.8397 37.2897 29.6258 37.3062 29.1651C37.3226 28.1943 37.3062 27.2071 37.3062 26.2199C37.3062 25.2655 37.3226 24.2947 37.3062 23.3404C37.2897 22.7974 37.4872 22.5506 38.0466 22.5671C38.6883 22.5835 39.3135 22.5835 39.9388 22.5671C40.3172 22.5671 40.5147 22.7316 40.5147 23.1101C40.5969 25.1668 40.5969 27.2235 40.5147 29.2967Z" fill="black"/>
<path d="M65.0321 10.095C64.9992 9.48617 64.6866 8.94319 64.0942 8.87737C63.3867 8.7951 63.1893 8.40021 63.0247 7.84077C62.9754 7.65978 62.8931 7.49524 62.7944 7.3307C62.6134 7.03453 62.6463 6.80418 62.8766 6.50801C63.3538 5.86631 63.3044 5.25751 62.7615 4.68162C62.2679 4.1551 61.7578 3.66148 61.2313 3.16786C60.787 2.75652 60.1947 2.57552 59.7175 2.95396C59.1416 3.41467 58.6974 3.26659 58.1873 2.97042C58.0227 2.88815 57.8418 2.82233 57.6772 2.77297C57.3646 2.6907 57.2165 2.52616 57.1836 2.18063C57.1013 1.4073 56.6077 0.96304 55.8344 0.930132C55.1104 0.897224 54.4029 0.913678 53.6789 0.930132C53.0372 0.946586 52.5271 1.25921 52.412 1.88446C52.2968 2.50971 51.9842 2.78942 51.4247 2.92106C51.2273 2.97042 51.0463 3.06914 50.8653 3.16786C50.5856 3.3324 50.3717 3.3324 50.1084 3.10205C49.4832 2.60843 48.8415 2.64134 48.282 3.16786C47.7391 3.66148 47.2125 4.18801 46.7189 4.73099C46.2911 5.20815 46.1759 5.8334 46.5544 6.31056C46.9328 6.80418 46.867 7.16616 46.6037 7.62687C46.4886 7.82432 46.4227 8.03822 46.3569 8.25212C46.2582 8.5812 46.0937 8.74574 45.7152 8.7951C45.0077 8.87737 44.5634 9.32163 44.5305 9.99624C44.4976 10.8189 44.4976 11.6416 44.5305 12.4479C44.5634 13.0402 44.9254 13.4845 45.5013 13.5667C46.0937 13.649 46.3569 13.9452 46.4721 14.4717C46.5215 14.6691 46.6202 14.8501 46.7189 15.0311C46.8999 15.3438 46.8999 15.607 46.6531 15.9196C46.1924 16.512 46.2582 17.1866 46.7518 17.7131C47.2454 18.2396 47.7555 18.7333 48.2656 19.2269C48.7263 19.6711 49.3351 19.8028 49.8452 19.4408C50.3717 19.0623 50.783 19.0952 51.2766 19.4079C51.4083 19.4901 51.5728 19.556 51.7374 19.5889C52.1158 19.6876 52.2968 19.8686 52.3626 20.2964C52.4942 21.0862 52.9549 21.4482 53.7612 21.4811C54.4358 21.4975 55.1104 21.4975 55.785 21.4811C56.6077 21.4482 57.052 21.0533 57.2 20.2306C57.233 20.0825 57.1836 19.9015 57.3152 19.8357C57.8582 19.5889 58.3847 19.3421 58.9442 19.1282C59.2568 18.9965 59.3884 19.3585 59.6188 19.4737C59.8491 19.5724 60.0795 19.6382 60.3263 19.6382C60.6389 19.6547 60.9515 19.556 61.1654 19.3421C61.7413 18.7826 62.3172 18.2396 62.8602 17.6473C63.3044 17.1537 63.3374 16.512 62.926 16.0184C62.6134 15.6399 62.6298 15.3602 62.8602 14.9818C62.9754 14.7679 63.0741 14.5375 63.1399 14.3072C63.2386 13.9123 63.469 13.7148 63.8968 13.649C64.6043 13.5338 65.0157 13.0402 65.0321 12.3327C65.065 11.5594 65.065 10.8189 65.0321 10.095ZM56.8052 14.6691C56.1305 14.9982 55.9331 15.3931 55.9496 16.1006C55.9989 17.2853 55.9496 18.47 55.966 19.6547C55.9825 20.0989 55.8179 20.2964 55.3737 20.2635C54.9294 20.2306 54.4687 20.247 54.0244 20.2635C53.646 20.2799 53.5308 20.0825 53.5473 19.737C53.5637 19.0459 53.5473 18.3548 53.5473 17.6473H53.5308C53.5308 17.0385 53.4979 16.4133 53.5473 15.8045C53.5802 15.245 53.3334 14.9653 52.8398 14.735C50.2236 13.468 49.5819 10.1937 51.5235 8.08758C51.7209 7.87368 51.9513 7.49524 52.231 7.59397C52.5107 7.69269 52.3461 8.10404 52.3626 8.38375C52.3791 9.14063 52.3461 9.89751 52.3791 10.6544C52.4284 12.053 53.465 13.1389 54.7484 13.1389C56.0483 13.1554 57.1342 12.0365 57.1836 10.6215C57.2 9.76588 57.1836 8.91028 57.2 8.03822C57.2 7.89014 57.1178 7.65978 57.2823 7.59397C57.4798 7.49524 57.6114 7.70914 57.743 7.82432C59.9314 9.74943 59.4707 13.3528 56.8052 14.6691ZM63.8145 10.7531C63.7981 10.9506 63.8145 11.1645 63.8145 11.3619C63.8145 12.3162 63.8145 12.3327 62.8931 12.4479C62.564 12.4808 62.3501 12.6453 62.2679 12.9579C62.054 13.7806 61.7413 14.5375 61.3135 15.2779C61.0832 15.6564 61.1983 16.0019 61.5274 16.2487C62.021 16.6272 61.9552 16.9398 61.511 17.3018C61.2148 17.5486 60.9515 17.8283 60.6883 18.1245C60.4415 18.3877 60.2111 18.4371 59.9808 18.1245C59.52 17.5157 59.0429 17.6144 58.4341 17.9599C57.233 18.6674 57.2165 18.6345 57.2165 17.236C57.2165 17.203 57.2165 17.1537 57.2165 17.1208C57.0849 16.2981 57.3975 15.788 58.1215 15.2944C61.1819 13.1554 61.1161 8.64702 58.0721 6.49155C57.8747 6.34347 57.6608 6.21184 57.4304 6.12957C56.6571 5.8334 56.0318 6.22829 55.966 7.06744C55.9496 7.36361 55.966 7.67624 55.966 7.98886V8.84446C55.966 9.4039 55.9825 9.94687 55.966 10.5063C55.9331 11.2961 55.3901 11.8884 54.7484 11.872C54.1067 11.8555 53.646 11.2961 53.6296 10.5063C53.6131 9.50262 53.6296 8.49893 53.6296 7.49524C53.6296 6.96872 53.5966 6.44219 53.0701 6.16248C52.5271 5.86631 52.0335 6.12957 51.5893 6.42574C48.3314 8.61411 48.4137 13.4516 51.7538 15.5247C52.1981 15.8045 52.3791 16.0842 52.3461 16.5943C52.2968 17.055 52.3297 17.5321 52.3461 18.0093C52.3626 18.4042 52.1816 18.47 51.8525 18.3219C51.5399 18.1738 51.2108 18.0422 50.9147 17.8448C50.4539 17.5486 50.0591 17.5815 49.73 17.9928C49.3844 18.4535 49.0718 18.3713 48.7592 17.9599C48.6276 17.7954 48.4795 17.6638 48.3314 17.5157C47.6568 16.8411 47.6568 16.8411 48.2162 16.0677C48.4301 15.7716 48.4137 15.5083 48.2491 15.2121C47.8378 14.5211 47.5252 13.7806 47.3277 13.0073C47.2125 12.5301 46.8834 12.3821 46.4556 12.4314C45.9127 12.4808 45.7152 12.234 45.7646 11.7074C45.781 11.5265 45.7646 11.3455 45.7646 11.148C45.781 10.8189 45.7152 10.4569 45.8304 10.1772C45.9949 9.81524 46.4227 10.0456 46.7189 9.96333C47.0315 9.89751 47.229 9.70007 47.2948 9.4039C47.5087 8.61411 47.8049 7.85723 48.2327 7.14971C48.5124 6.70545 48.2985 6.35992 47.953 6.08021C47.5581 5.76758 47.591 5.48787 47.953 5.19169C48.1339 5.04361 48.2985 4.84616 48.4795 4.68162C49.1541 4.00701 49.1541 4.00701 49.8781 4.56645C50.1578 4.78035 50.4375 4.7968 50.7337 4.63226C51.4576 4.23737 52.1981 3.90829 53.0043 3.71084C53.3992 3.61212 53.5966 3.3324 53.5473 2.93751C53.465 2.2629 53.7776 2.049 54.4029 2.14772C54.5345 2.16418 54.6826 2.14772 54.8307 2.14772C55.1598 2.16418 55.5218 2.08191 55.8015 2.21354C56.1635 2.37808 55.9496 2.78942 55.9989 3.10205C56.0647 3.44758 56.2786 3.64503 56.5913 3.7273C57.3646 3.92474 58.105 4.22091 58.7961 4.64872C59.2403 4.91198 59.6023 4.76389 59.882 4.40191C60.2111 3.99056 60.4908 4.02347 60.8035 4.41836C60.9351 4.5829 61.0996 4.71453 61.2313 4.86262C61.4616 5.09297 61.7742 5.30687 61.873 5.58659C62.0046 5.94857 61.5439 6.08021 61.3629 6.34347C61.1654 6.63964 61.1819 6.91936 61.3464 7.19907C61.7578 7.89014 62.054 8.63056 62.2514 9.4039C62.3666 9.8646 62.6957 10.0456 63.1235 9.99624C63.7158 9.94687 63.8803 10.2266 63.8145 10.7531Z" fill="black"/>
<path d="M59.3886 28.4245C59.3393 28.8029 59.1254 29.0333 58.7469 29.0168C58.4014 29.0004 58.1875 28.77 58.1875 28.4245C58.1875 28.0296 58.4343 27.8322 58.8127 27.8486C59.1747 27.8486 59.3393 28.079 59.3886 28.4245Z" fill="black"/>
</g>
<script xmlns=""/></svg>