<svg width="23" height="17" viewBox="0 0 23 17" fill="none" xmlns="http://www.w3.org/2000/svg">
<path d="M0.807029 11.1879V1.40225C0.807029 0.858481 1.24783 0.417648 1.79163 0.417648H11.5723C12.116 0.417648 12.5568 0.858481 12.5568 1.40225V11.188C12.5568 11.3692 12.4099 11.5162 12.2286 11.5162H1.13523C0.953936 11.5162 0.807029 11.3692 0.807029 11.1879ZM8.7052 14.5403C8.7052 15.6681 7.79087 16.5824 6.66309 16.5824C5.5353 16.5824 4.62097 15.6681 4.62097 14.5403C4.62097 13.4124 5.5353 12.4982 6.66309 12.4982C7.79087 12.4982 8.7052 13.4124 8.7052 14.5403ZM7.6841 14.5403C7.6841 13.9764 7.22696 13.5192 6.66305 13.5192C6.09913 13.5192 5.64195 13.9764 5.64195 14.5403C5.64195 15.1042 6.09913 15.5614 6.66305 15.5614C7.22696 15.5614 7.6841 15.1042 7.6841 14.5403ZM4.90422 12.4981H0.328201C0.146944 12.4981 0 12.6451 0 12.8263V13.8221C0 14.0033 0.146944 14.1503 0.328201 14.1503H3.9961C4.09186 13.4932 4.42352 12.9128 4.90422 12.4981ZM19.3898 14.5403C19.3898 15.6681 18.4755 16.5824 17.3477 16.5824C16.2199 16.5824 15.3056 15.6681 15.3056 14.5403C15.3056 13.4124 16.2199 12.4982 17.3477 12.4982C18.4755 12.4981 19.3898 13.4124 19.3898 14.5403ZM18.3688 14.5403C18.3688 13.9764 17.9116 13.5192 17.3477 13.5192C16.7838 13.5192 16.3267 13.9764 16.3267 14.5403C16.3267 15.1042 16.7838 15.5614 17.3477 15.5614C17.9116 15.5614 18.3688 15.1042 18.3688 14.5403ZM23 12.8263V13.8221C23 14.0033 22.8531 14.1503 22.6718 14.1503H20.0146C19.8246 12.8468 18.7028 11.8417 17.3478 11.8417C15.9925 11.8417 14.8707 12.8468 14.6807 14.1503H9.33007C9.23427 13.4932 8.90265 12.9128 8.42195 12.4981H13.4953V3.11056C13.4953 2.74805 13.7891 2.45416 14.1517 2.45416H17.2501C18.1225 2.45416 18.9379 2.88751 19.4261 3.61055L21.4235 6.56901C21.7165 7.00297 21.8731 7.51461 21.8731 8.03823V12.4981H22.6718C22.8531 12.4981 23 12.6451 23 12.8263ZM19.6706 6.64478L18.0733 4.37511C18.0118 4.28777 17.9117 4.2358 17.8049 4.2358H15.3134C15.1322 4.2358 14.9852 4.38274 14.9852 4.564V6.83367C14.9852 7.01496 15.1322 7.16187 15.3134 7.16187H19.4022C19.6681 7.16187 19.8236 6.86223 19.6706 6.64478Z" fill="#E9098D"/>
</svg>
