<svg width="15" height="15" viewBox="0 0 15 15" fill="none" xmlns="http://www.w3.org/2000/svg">
<path d="M13.9 9.1C14.1 8.6 15 8.1 15 7.5C15 6.9 14.1 6.5 13.9 5.9C13.8 5.4 14.3 4.5 14 4C13.7 3.5 12.6 3.5 12.2 3.1C11.8 2.7 11.8 1.7 11.2 1.4C10.7 1.1 9.8 1.6 9.2 1.5C8.6 1.4 8.1 0.5 7.5 0.5C6.9 0.5 6.4 1.3 5.8 1.5C5.2 1.6 4.3 1.2 3.8 1.4C3.3 1.7 3.3 2.6 2.8 3.1C2.4 3.6 1.3 3.6 1 4C0.7 4.5 1.2 5.4 1.1 5.9C0.9 6.5 0 6.9 0 7.5C0 8.1 0.9 8.5 1.1 9.1C1.2 9.6 0.7 10.5 1 11C1.3 11.5 2.4 11.5 2.8 11.9C3.2 12.3 3.2 13.3 3.8 13.6C4.3 13.9 5.2 13.4 5.8 13.5C6.4 13.6 6.9 14.5 7.5 14.5C8.1 14.5 8.6 13.7 9.2 13.5C9.8 13.4 10.7 13.8 11.2 13.6C11.7 13.3 11.7 12.4 12.2 11.9C12.6 11.5 13.7 11.5 14 11C14.3 10.5 13.8 9.6 13.9 9.1Z" fill="#E9098D"/>
<path d="M10.2577 5.87357L9.19705 4.81292L4.88374 9.12623L5.94439 10.1869L10.2577 5.87357Z" fill="white"/>
<path d="M9.12642 10.2577L10.1871 9.19704L5.87376 4.88373L4.81311 5.94438L9.12642 10.2577Z" fill="white"/>
</svg>
