<svg width="102" height="66" viewBox="0 0 102 66" fill="none" xmlns="http://www.w3.org/2000/svg">
<path d="M7.9163 37.5995H8.7923V45.9995H7.9163V37.5995ZM2.6603 45.9995H1.7723V37.5995H2.6603V45.9995ZM8.0003 42.1235H2.5643V41.3435H8.0003V42.1235ZM15.302 45.9995V44.6075L15.266 44.3795V42.0515C15.266 41.5155 15.114 41.1035 14.81 40.8155C14.514 40.5275 14.07 40.3835 13.478 40.3835C13.07 40.3835 12.682 40.4515 12.314 40.5875C11.946 40.7235 11.634 40.9035 11.378 41.1275L10.994 40.4915C11.314 40.2195 11.698 40.0115 12.146 39.8675C12.594 39.7155 13.066 39.6395 13.562 39.6395C14.378 39.6395 15.006 39.8435 15.446 40.2515C15.894 40.6515 16.118 41.2635 16.118 42.0875V45.9995H15.302ZM13.13 46.0595C12.658 46.0595 12.246 45.9835 11.894 45.8315C11.55 45.6715 11.286 45.4555 11.102 45.1835C10.918 44.9035 10.826 44.5835 10.826 44.2235C10.826 43.8955 10.902 43.5995 11.054 43.3355C11.214 43.0635 11.47 42.8475 11.822 42.6875C12.182 42.5195 12.662 42.4355 13.262 42.4355H15.434V43.0715H13.286C12.678 43.0715 12.254 43.1795 12.014 43.3955C11.782 43.6115 11.666 43.8795 11.666 44.1995C11.666 44.5595 11.806 44.8475 12.086 45.0635C12.366 45.2795 12.758 45.3875 13.262 45.3875C13.742 45.3875 14.154 45.2795 14.498 45.0635C14.85 44.8395 15.106 44.5195 15.266 44.1035L15.458 44.6915C15.298 45.1075 15.018 45.4395 14.618 45.6875C14.226 45.9355 13.73 46.0595 13.13 46.0595ZM19.935 45.9995L17.139 39.6995H18.027L20.595 45.5435H20.175L22.779 39.6995H23.619L20.811 45.9995H19.935ZM27.3191 46.0595C26.6631 46.0595 26.0871 45.9235 25.5911 45.6515C25.0951 45.3715 24.7071 44.9915 24.4271 44.5115C24.1471 44.0235 24.0071 43.4675 24.0071 42.8435C24.0071 42.2195 24.1391 41.6675 24.4031 41.1875C24.6751 40.7075 25.0431 40.3315 25.5071 40.0595C25.9791 39.7795 26.5071 39.6395 27.0911 39.6395C27.6831 39.6395 28.2071 39.7755 28.6631 40.0475C29.1271 40.3115 29.4911 40.6875 29.7551 41.1755C30.0191 41.6555 30.1511 42.2115 30.1511 42.8435C30.1511 42.8835 30.1471 42.9275 30.1391 42.9755C30.1391 43.0155 30.1391 43.0595 30.1391 43.1075H24.6551V42.4715H29.6831L29.3471 42.7235C29.3471 42.2675 29.2471 41.8635 29.0471 41.5115C28.8551 41.1515 28.5911 40.8715 28.2551 40.6715C27.9191 40.4715 27.5311 40.3715 27.0911 40.3715C26.6591 40.3715 26.2711 40.4715 25.9271 40.6715C25.5831 40.8715 25.3151 41.1515 25.1231 41.5115C24.9311 41.8715 24.8351 42.2835 24.8351 42.7475V42.8795C24.8351 43.3595 24.9391 43.7835 25.1471 44.1515C25.3631 44.5115 25.6591 44.7955 26.0351 45.0035C26.4191 45.2035 26.8551 45.3035 27.3431 45.3035C27.7271 45.3035 28.0831 45.2355 28.4111 45.0995C28.7471 44.9635 29.0351 44.7555 29.2751 44.4755L29.7551 45.0275C29.4751 45.3635 29.1231 45.6195 28.6991 45.7955C28.2831 45.9715 27.8231 46.0595 27.3191 46.0595ZM38.8779 46.0715C38.2459 46.0715 37.6579 45.9675 37.1139 45.7595C36.5779 45.5435 36.1099 45.2435 35.7099 44.8595C35.3179 44.4675 35.0099 44.0155 34.7859 43.5035C34.5699 42.9835 34.4619 42.4155 34.4619 41.7995C34.4619 41.1835 34.5699 40.6195 34.7859 40.1075C35.0099 39.5875 35.3179 39.1355 35.7099 38.7515C36.1099 38.3595 36.5779 38.0595 37.1139 37.8515C37.6499 37.6355 38.2379 37.5275 38.8779 37.5275C39.5099 37.5275 40.0939 37.6355 40.6299 37.8515C41.1659 38.0595 41.6299 38.3555 42.0219 38.7395C42.4219 39.1235 42.7299 39.5755 42.9459 40.0955C43.1699 40.6155 43.2819 41.1835 43.2819 41.7995C43.2819 42.4155 43.1699 42.9835 42.9459 43.5035C42.7299 44.0235 42.4219 44.4755 42.0219 44.8595C41.6299 45.2435 41.1659 45.5435 40.6299 45.7595C40.0939 45.9675 39.5099 46.0715 38.8779 46.0715ZM41.6259 47.6675C41.3699 47.6675 41.1219 47.6355 40.8819 47.5715C40.6419 47.5075 40.3979 47.4035 40.1499 47.2595C39.9099 47.1235 39.6619 46.9435 39.4059 46.7195C39.1499 46.4955 38.8699 46.2235 38.5659 45.9035L39.5379 45.6635C39.7859 45.9595 40.0259 46.2035 40.2579 46.3955C40.4979 46.5875 40.7299 46.7275 40.9539 46.8155C41.1859 46.9115 41.4139 46.9595 41.6379 46.9595C42.2619 46.9595 42.7939 46.7035 43.2339 46.1915L43.6659 46.7075C43.1379 47.3475 42.4579 47.6675 41.6259 47.6675ZM38.8779 45.2795C39.3819 45.2795 39.8459 45.1955 40.2699 45.0275C40.7019 44.8515 41.0739 44.6035 41.3859 44.2835C41.7059 43.9635 41.9539 43.5955 42.1299 43.1795C42.3059 42.7555 42.3939 42.2955 42.3939 41.7995C42.3939 41.2955 42.3059 40.8355 42.1299 40.4195C41.9539 39.9955 41.7059 39.6275 41.3859 39.3155C41.0739 38.9955 40.7019 38.7515 40.2699 38.5835C39.8459 38.4075 39.3819 38.3195 38.8779 38.3195C38.3739 38.3195 37.9059 38.4075 37.4739 38.5835C37.0419 38.7515 36.6659 38.9955 36.3459 39.3155C36.0339 39.6275 35.7859 39.9955 35.6019 40.4195C35.4259 40.8355 35.3379 41.2955 35.3379 41.7995C35.3379 42.2955 35.4259 42.7555 35.6019 43.1795C35.7859 43.5955 36.0339 43.9635 36.3459 44.2835C36.6659 44.6035 37.0419 44.8515 37.4739 45.0275C37.9059 45.1955 38.3739 45.2795 38.8779 45.2795ZM47.6963 46.0595C47.1603 46.0595 46.6923 45.9595 46.2923 45.7595C45.8923 45.5595 45.5803 45.2595 45.3563 44.8595C45.1403 44.4595 45.0323 43.9595 45.0323 43.3595V39.6995H45.8843V43.2635C45.8843 43.9355 46.0483 44.4435 46.3763 44.7875C46.7123 45.1235 47.1803 45.2915 47.7803 45.2915C48.2203 45.2915 48.6003 45.2035 48.9203 45.0275C49.2483 44.8435 49.4963 44.5795 49.6643 44.2355C49.8403 43.8915 49.9283 43.4795 49.9283 42.9995V39.6995H50.7803V45.9995H49.9643V44.2715L50.0963 44.5835C49.8963 45.0475 49.5843 45.4115 49.1603 45.6755C48.7443 45.9315 48.2563 46.0595 47.6963 46.0595ZM55.8308 46.0595C55.1748 46.0595 54.5988 45.9235 54.1028 45.6515C53.6068 45.3715 53.2188 44.9915 52.9388 44.5115C52.6588 44.0235 52.5188 43.4675 52.5188 42.8435C52.5188 42.2195 52.6508 41.6675 52.9148 41.1875C53.1868 40.7075 53.5548 40.3315 54.0188 40.0595C54.4908 39.7795 55.0188 39.6395 55.6028 39.6395C56.1948 39.6395 56.7188 39.7755 57.1748 40.0475C57.6388 40.3115 58.0028 40.6875 58.2668 41.1755C58.5308 41.6555 58.6628 42.2115 58.6628 42.8435C58.6628 42.8835 58.6588 42.9275 58.6508 42.9755C58.6508 43.0155 58.6508 43.0595 58.6508 43.1075H53.1668V42.4715H58.1948L57.8588 42.7235C57.8588 42.2675 57.7588 41.8635 57.5588 41.5115C57.3668 41.1515 57.1028 40.8715 56.7668 40.6715C56.4308 40.4715 56.0428 40.3715 55.6028 40.3715C55.1708 40.3715 54.7828 40.4715 54.4388 40.6715C54.0948 40.8715 53.8268 41.1515 53.6348 41.5115C53.4428 41.8715 53.3468 42.2835 53.3468 42.7475V42.8795C53.3468 43.3595 53.4508 43.7835 53.6588 44.1515C53.8748 44.5115 54.1708 44.7955 54.5468 45.0035C54.9308 45.2035 55.3668 45.3035 55.8548 45.3035C56.2388 45.3035 56.5948 45.2355 56.9228 45.0995C57.2588 44.9635 57.5468 44.7555 57.7868 44.4755L58.2668 45.0275C57.9868 45.3635 57.6348 45.6195 57.2108 45.7955C56.7948 45.9715 56.3348 46.0595 55.8308 46.0595ZM62.089 46.0595C61.569 46.0595 61.077 45.9875 60.613 45.8435C60.149 45.6915 59.785 45.5035 59.521 45.2795L59.905 44.6075C60.161 44.7995 60.489 44.9675 60.889 45.1115C61.289 45.2475 61.709 45.3155 62.149 45.3155C62.749 45.3155 63.181 45.2235 63.445 45.0395C63.709 44.8475 63.841 44.5955 63.841 44.2835C63.841 44.0515 63.765 43.8715 63.613 43.7435C63.469 43.6075 63.277 43.5075 63.037 43.4435C62.797 43.3715 62.529 43.3115 62.233 43.2635C61.937 43.2155 61.641 43.1595 61.345 43.0955C61.057 43.0315 60.793 42.9395 60.553 42.8195C60.313 42.6915 60.117 42.5195 59.965 42.3035C59.821 42.0875 59.749 41.7995 59.749 41.4395C59.749 41.0955 59.845 40.7875 60.037 40.5155C60.229 40.2435 60.509 40.0315 60.877 39.8795C61.253 39.7195 61.709 39.6395 62.245 39.6395C62.653 39.6395 63.061 39.6955 63.469 39.8075C63.877 39.9115 64.213 40.0515 64.477 40.2275L64.105 40.9115C63.825 40.7195 63.525 40.5835 63.205 40.5035C62.885 40.4155 62.565 40.3715 62.245 40.3715C61.677 40.3715 61.257 40.4715 60.985 40.6715C60.721 40.8635 60.589 41.1115 60.589 41.4155C60.589 41.6555 60.661 41.8435 60.805 41.9795C60.957 42.1155 61.153 42.2235 61.393 42.3035C61.641 42.3755 61.909 42.4355 62.197 42.4835C62.493 42.5315 62.785 42.5915 63.073 42.6635C63.369 42.7275 63.637 42.8195 63.877 42.9395C64.125 43.0515 64.321 43.2155 64.465 43.4315C64.617 43.6395 64.693 43.9155 64.693 44.2595C64.693 44.6275 64.589 44.9475 64.381 45.2195C64.181 45.4835 63.885 45.6915 63.493 45.8435C63.109 45.9875 62.641 46.0595 62.089 46.0595ZM68.2484 46.0595C67.6564 46.0595 67.2004 45.8995 66.8804 45.5795C66.5604 45.2595 66.4004 44.8075 66.4004 44.2235V38.3075H67.2524V44.1755C67.2524 44.5435 67.3444 44.8275 67.5284 45.0275C67.7204 45.2275 67.9924 45.3275 68.3444 45.3275C68.7204 45.3275 69.0324 45.2195 69.2804 45.0035L69.5804 45.6155C69.4124 45.7675 69.2084 45.8795 68.9684 45.9515C68.7364 46.0235 68.4964 46.0595 68.2484 46.0595ZM65.2724 40.4075V39.6995H69.1724V40.4075H65.2724ZM71.1314 45.9995V39.6995H71.9834V45.9995H71.1314ZM71.5634 38.3075C71.3874 38.3075 71.2394 38.2475 71.1194 38.1275C70.9994 38.0075 70.9394 37.8635 70.9394 37.6955C70.9394 37.5275 70.9994 37.3875 71.1194 37.2755C71.2394 37.1555 71.3874 37.0955 71.5634 37.0955C71.7394 37.0955 71.8874 37.1515 72.0074 37.2635C72.1274 37.3755 72.1874 37.5155 72.1874 37.6835C72.1874 37.8595 72.1274 38.0075 72.0074 38.1275C71.8954 38.2475 71.7474 38.3075 71.5634 38.3075ZM76.922 46.0595C76.314 46.0595 75.766 45.9235 75.278 45.6515C74.798 45.3715 74.418 44.9915 74.138 44.5115C73.858 44.0235 73.718 43.4675 73.718 42.8435C73.718 42.2115 73.858 41.6555 74.138 41.1755C74.418 40.6955 74.798 40.3195 75.278 40.0475C75.758 39.7755 76.306 39.6395 76.922 39.6395C77.546 39.6395 78.098 39.7755 78.578 40.0475C79.066 40.3195 79.446 40.6955 79.718 41.1755C79.998 41.6555 80.138 42.2115 80.138 42.8435C80.138 43.4675 79.998 44.0235 79.718 44.5115C79.446 44.9915 79.066 45.3715 78.578 45.6515C78.09 45.9235 77.538 46.0595 76.922 46.0595ZM76.922 45.3035C77.378 45.3035 77.782 45.2035 78.134 45.0035C78.486 44.7955 78.762 44.5075 78.962 44.1395C79.17 43.7635 79.274 43.3315 79.274 42.8435C79.274 42.3475 79.17 41.9155 78.962 41.5475C78.762 41.1795 78.486 40.8955 78.134 40.6955C77.782 40.4875 77.382 40.3835 76.934 40.3835C76.486 40.3835 76.086 40.4875 75.734 40.6955C75.382 40.8955 75.102 41.1795 74.894 41.5475C74.686 41.9155 74.582 42.3475 74.582 42.8435C74.582 43.3315 74.686 43.7635 74.894 44.1395C75.102 44.5075 75.382 44.7955 75.734 45.0035C76.086 45.2035 76.482 45.3035 76.922 45.3035ZM85.0935 39.6395C85.6055 39.6395 86.0535 39.7395 86.4375 39.9395C86.8295 40.1315 87.1335 40.4275 87.3495 40.8275C87.5735 41.2275 87.6855 41.7315 87.6855 42.3395V45.9995H86.8335V42.4235C86.8335 41.7595 86.6655 41.2595 86.3295 40.9235C86.0015 40.5795 85.5375 40.4075 84.9375 40.4075C84.4895 40.4075 84.0975 40.4995 83.7615 40.6835C83.4335 40.8595 83.1775 41.1195 82.9935 41.4635C82.8175 41.7995 82.7295 42.2075 82.7295 42.6875V45.9995H81.8775V39.6995H82.6935V41.4275L82.5615 41.1035C82.7615 40.6475 83.0815 40.2915 83.5215 40.0355C83.9615 39.7715 84.4855 39.6395 85.0935 39.6395ZM91.6788 46.0595C91.1588 46.0595 90.6668 45.9875 90.2028 45.8435C89.7388 45.6915 89.3748 45.5035 89.1108 45.2795L89.4948 44.6075C89.7508 44.7995 90.0788 44.9675 90.4788 45.1115C90.8788 45.2475 91.2988 45.3155 91.7388 45.3155C92.3388 45.3155 92.7708 45.2235 93.0348 45.0395C93.2988 44.8475 93.4308 44.5955 93.4308 44.2835C93.4308 44.0515 93.3548 43.8715 93.2028 43.7435C93.0588 43.6075 92.8668 43.5075 92.6268 43.4435C92.3868 43.3715 92.1188 43.3115 91.8228 43.2635C91.5268 43.2155 91.2308 43.1595 90.9348 43.0955C90.6468 43.0315 90.3828 42.9395 90.1428 42.8195C89.9028 42.6915 89.7068 42.5195 89.5548 42.3035C89.4108 42.0875 89.3388 41.7995 89.3388 41.4395C89.3388 41.0955 89.4348 40.7875 89.6268 40.5155C89.8188 40.2435 90.0988 40.0315 90.4668 39.8795C90.8428 39.7195 91.2988 39.6395 91.8348 39.6395C92.2428 39.6395 92.6508 39.6955 93.0588 39.8075C93.4668 39.9115 93.8028 40.0515 94.0668 40.2275L93.6948 40.9115C93.4148 40.7195 93.1148 40.5835 92.7948 40.5035C92.4748 40.4155 92.1548 40.3715 91.8348 40.3715C91.2668 40.3715 90.8468 40.4715 90.5748 40.6715C90.3108 40.8635 90.1788 41.1115 90.1788 41.4155C90.1788 41.6555 90.2508 41.8435 90.3948 41.9795C90.5468 42.1155 90.7428 42.2235 90.9828 42.3035C91.2308 42.3755 91.4988 42.4355 91.7868 42.4835C92.0828 42.5315 92.3748 42.5915 92.6628 42.6635C92.9588 42.7275 93.2268 42.8195 93.4668 42.9395C93.7148 43.0515 93.9108 43.2155 94.0548 43.4315C94.2068 43.6395 94.2828 43.9155 94.2828 44.2595C94.2828 44.6275 94.1788 44.9475 93.9708 45.2195C93.7708 45.4835 93.4748 45.6915 93.0828 45.8435C92.6988 45.9875 92.2308 46.0595 91.6788 46.0595ZM97.2673 43.4795C97.2673 43.1435 97.3193 42.8555 97.4233 42.6155C97.5353 42.3755 97.6713 42.1635 97.8313 41.9795C97.9993 41.7955 98.1753 41.6235 98.3593 41.4635C98.5513 41.3035 98.7313 41.1435 98.8993 40.9835C99.0673 40.8155 99.2033 40.6355 99.3073 40.4435C99.4113 40.2435 99.4633 40.0115 99.4633 39.7475C99.4633 39.3155 99.2953 38.9635 98.9593 38.6915C98.6233 38.4195 98.1473 38.2835 97.5313 38.2835C97.0193 38.2835 96.5753 38.3675 96.1993 38.5355C95.8233 38.6955 95.5033 38.9355 95.2393 39.2555L94.6033 38.7755C94.9233 38.3755 95.3353 38.0675 95.8393 37.8515C96.3433 37.6355 96.9273 37.5275 97.5913 37.5275C98.1513 37.5275 98.6353 37.6115 99.0433 37.7795C99.4593 37.9475 99.7793 38.1875 100.003 38.4995C100.235 38.8115 100.351 39.1835 100.351 39.6155C100.351 39.9595 100.295 40.2555 100.183 40.5035C100.079 40.7435 99.9433 40.9595 99.7753 41.1515C99.6153 41.3355 99.4393 41.5115 99.2473 41.6795C99.0633 41.8395 98.8873 42.0035 98.7193 42.1715C98.5513 42.3395 98.4153 42.5275 98.3113 42.7355C98.2073 42.9435 98.1553 43.1915 98.1553 43.4795H97.2673ZM97.7113 46.0595C97.5433 46.0595 97.3953 45.9995 97.2673 45.8795C97.1473 45.7515 97.0873 45.6035 97.0873 45.4355C97.0873 45.2595 97.1473 45.1155 97.2673 45.0035C97.3953 44.8835 97.5433 44.8235 97.7113 44.8235C97.8953 44.8235 98.0473 44.8835 98.1673 45.0035C98.2873 45.1155 98.3473 45.2595 98.3473 45.4355C98.3473 45.6035 98.2873 45.7515 98.1673 45.8795C98.0473 45.9995 97.8953 46.0595 97.7113 46.0595ZM35.5668 62.0715C34.9348 62.0715 34.3508 61.9675 33.8148 61.7595C33.2788 61.5435 32.8148 61.2435 32.4228 60.8595C32.0308 60.4755 31.7228 60.0235 31.4988 59.5035C31.2828 58.9835 31.1748 58.4155 31.1748 57.7995C31.1748 57.1835 31.2828 56.6155 31.4988 56.0955C31.7228 55.5755 32.0308 55.1235 32.4228 54.7395C32.8228 54.3555 33.2908 54.0595 33.8268 53.8515C34.3628 53.6355 34.9468 53.5275 35.5788 53.5275C36.1868 53.5275 36.7588 53.6315 37.2948 53.8395C37.8308 54.0395 38.2828 54.3435 38.6508 54.7515L38.0868 55.3155C37.7428 54.9635 37.3628 54.7115 36.9468 54.5595C36.5308 54.3995 36.0828 54.3195 35.6028 54.3195C35.0988 54.3195 34.6308 54.4075 34.1988 54.5835C33.7668 54.7515 33.3908 54.9955 33.0708 55.3155C32.7508 55.6275 32.4988 55.9955 32.3148 56.4195C32.1388 56.8355 32.0508 57.2955 32.0508 57.7995C32.0508 58.3035 32.1388 58.7675 32.3148 59.1915C32.4988 59.6075 32.7508 59.9755 33.0708 60.2955C33.3908 60.6075 33.7668 60.8515 34.1988 61.0275C34.6308 61.1955 35.0988 61.2795 35.6028 61.2795C36.0828 61.2795 36.5308 61.1995 36.9468 61.0395C37.3628 60.8795 37.7428 60.6235 38.0868 60.2715L38.6508 60.8355C38.2828 61.2435 37.8308 61.5515 37.2948 61.7595C36.7588 61.9675 36.1828 62.0715 35.5668 62.0715ZM44.218 61.9995V60.6075L44.182 60.3795V58.0515C44.182 57.5155 44.03 57.1035 43.726 56.8155C43.43 56.5275 42.986 56.3835 42.394 56.3835C41.986 56.3835 41.598 56.4515 41.23 56.5875C40.862 56.7235 40.55 56.9035 40.294 57.1275L39.91 56.4915C40.23 56.2195 40.614 56.0115 41.062 55.8675C41.51 55.7155 41.982 55.6395 42.478 55.6395C43.294 55.6395 43.922 55.8435 44.362 56.2515C44.81 56.6515 45.034 57.2635 45.034 58.0875V61.9995H44.218ZM42.046 62.0595C41.574 62.0595 41.162 61.9835 40.81 61.8315C40.466 61.6715 40.202 61.4555 40.018 61.1835C39.834 60.9035 39.742 60.5835 39.742 60.2235C39.742 59.8955 39.818 59.5995 39.97 59.3355C40.13 59.0635 40.386 58.8475 40.738 58.6875C41.098 58.5195 41.578 58.4355 42.178 58.4355H44.35V59.0715H42.202C41.594 59.0715 41.17 59.1795 40.93 59.3955C40.698 59.6115 40.582 59.8795 40.582 60.1995C40.582 60.5595 40.722 60.8475 41.002 61.0635C41.282 61.2795 41.674 61.3875 42.178 61.3875C42.658 61.3875 43.07 61.2795 43.414 61.0635C43.766 60.8395 44.022 60.5195 44.182 60.1035L44.374 60.6915C44.214 61.1075 43.934 61.4395 43.534 61.6875C43.142 61.9355 42.646 62.0595 42.046 62.0595ZM47.3482 61.9995V53.0955H48.2002V61.9995H47.3482ZM50.5708 61.9995V53.0955H51.4228V61.9995H50.5708ZM60.4981 62.0715C59.4261 62.0715 58.5821 61.7635 57.9661 61.1475C57.3501 60.5315 57.0421 59.6195 57.0421 58.4115V53.5995H57.9301V58.3755C57.9301 59.3675 58.1541 60.0995 58.6021 60.5715C59.0501 61.0435 59.6821 61.2795 60.4981 61.2795C61.3221 61.2795 61.9581 61.0435 62.4061 60.5715C62.8541 60.0995 63.0781 59.3675 63.0781 58.3755V53.5995H63.9421V58.4115C63.9421 59.6195 63.6341 60.5315 63.0181 61.1475C62.4101 61.7635 61.5701 62.0715 60.4981 62.0715ZM68.13 62.0595C67.61 62.0595 67.118 61.9875 66.654 61.8435C66.19 61.6915 65.826 61.5035 65.562 61.2795L65.946 60.6075C66.202 60.7995 66.53 60.9675 66.93 61.1115C67.33 61.2475 67.75 61.3155 68.19 61.3155C68.79 61.3155 69.222 61.2235 69.486 61.0395C69.75 60.8475 69.882 60.5955 69.882 60.2835C69.882 60.0515 69.806 59.8715 69.654 59.7435C69.51 59.6075 69.318 59.5075 69.078 59.4435C68.838 59.3715 68.57 59.3115 68.274 59.2635C67.978 59.2155 67.682 59.1595 67.386 59.0955C67.098 59.0315 66.834 58.9395 66.594 58.8195C66.354 58.6915 66.158 58.5195 66.006 58.3035C65.862 58.0875 65.79 57.7995 65.79 57.4395C65.79 57.0955 65.886 56.7875 66.078 56.5155C66.27 56.2435 66.55 56.0315 66.918 55.8795C67.294 55.7195 67.75 55.6395 68.286 55.6395C68.694 55.6395 69.102 55.6955 69.51 55.8075C69.918 55.9115 70.254 56.0515 70.518 56.2275L70.146 56.9115C69.866 56.7195 69.566 56.5835 69.246 56.5035C68.926 56.4155 68.606 56.3715 68.286 56.3715C67.718 56.3715 67.298 56.4715 67.026 56.6715C66.762 56.8635 66.63 57.1115 66.63 57.4155C66.63 57.6555 66.702 57.8435 66.846 57.9795C66.998 58.1155 67.194 58.2235 67.434 58.3035C67.682 58.3755 67.95 58.4355 68.238 58.4835C68.534 58.5315 68.826 58.5915 69.114 58.6635C69.41 58.7275 69.678 58.8195 69.918 58.9395C70.166 59.0515 70.362 59.2155 70.506 59.4315C70.658 59.6395 70.734 59.9155 70.734 60.2595C70.734 60.6275 70.63 60.9475 70.422 61.2195C70.222 61.4835 69.926 61.6915 69.534 61.8435C69.15 61.9875 68.682 62.0595 68.13 62.0595Z" fill="#414141"/>
<path d="M0.404297 47.4995H101.251V48.0995H0.404297V47.4995ZM30.5508 63.4995H71.106V64.0995H30.5508V63.4995Z" fill="#414141"/>
<g opacity="0.82">
<path d="M65.3208 15.3625C65.3053 14.4638 64.9489 13.6735 64.2051 13.1776C63.7248 12.8522 63.4768 12.4803 63.5078 11.9225C63.5078 11.783 63.4768 11.659 63.4613 11.5196C62.671 4.68597 56.0234 -0.412113 49.2053 0.564117C43.1155 1.44737 38.6682 6.12707 38.1414 12.2324C38.1104 12.5733 38.0174 12.7747 37.7075 12.9762C36.8242 13.5495 36.3593 14.3863 36.3439 15.4555C36.3439 16.0133 36.3439 16.5712 36.3439 17.129C36.3439 17.7798 36.3129 18.4462 36.3439 19.097C36.4368 20.6156 37.7385 21.8242 39.257 21.8242C40.3572 21.8242 41.194 21.0494 41.2095 19.9647C41.2405 18.0898 41.225 16.2303 41.2095 14.3553C41.2095 13.596 40.8221 12.9762 40.1093 12.7282C39.5205 12.5268 39.412 12.2324 39.567 11.7055C39.598 11.5816 39.5979 11.4421 39.6134 11.3026C40.5432 5.81716 45.4863 1.6953 50.9098 1.85026C56.8137 2.02071 61.4624 6.25104 62.0977 12.0154C62.1287 12.3408 62.0822 12.4958 61.7413 12.6043C60.9355 12.8677 60.4242 13.4565 60.4087 14.3088C60.3777 16.1993 60.3932 18.0898 60.4087 19.9802C60.4087 20.662 60.7186 21.2974 61.3539 21.5143C62.1597 21.7777 62.2217 22.3046 62.1442 22.9709C62.1287 23.1104 62.1442 23.2343 62.1287 23.3738C62.0512 24.7839 60.9355 25.9151 59.5254 25.9926C58.9056 26.0236 58.2858 25.9926 57.6814 26.0081C57.3715 26.0236 57.2011 25.8996 57.0461 25.6362C56.7052 25.0473 56.1629 24.6909 55.4965 24.6444C54.6288 24.5979 53.761 24.567 52.8933 24.6444C51.7776 24.7374 51.0338 25.6207 51.0183 26.7209C51.0183 27.8056 51.7621 28.6578 52.8778 28.7973C53.699 28.8903 54.5358 28.8593 55.3571 28.8128C56.1009 28.7663 56.6897 28.4254 57.0616 27.7746C57.2166 27.4956 57.418 27.4027 57.7124 27.4027C58.3168 27.4182 58.9056 27.4182 59.5099 27.4027C61.4159 27.3407 62.9965 26.0081 63.4458 24.1486C63.6008 23.4978 63.5388 22.8469 63.5388 22.1961C63.5388 21.8242 63.6163 21.5608 63.9727 21.3438C64.8249 20.8015 65.2898 19.9957 65.2898 18.973C65.3363 17.7488 65.3363 16.5557 65.3208 15.3625ZM39.8614 14.5722C39.8769 15.44 39.8614 16.3077 39.8614 17.1755C39.8614 18.0123 39.8614 18.8335 39.8614 19.6548C39.8614 20.3211 39.536 20.5536 38.8851 20.3676C38.2498 20.1817 37.7695 19.6703 37.754 18.9885C37.723 17.7643 37.723 16.5247 37.754 15.3005C37.7695 14.5877 38.3273 14.0454 39.0246 13.9214C39.5825 13.8284 39.8459 14.0144 39.8614 14.5722ZM55.3416 27.4027C54.5978 27.4337 53.854 27.4337 53.0947 27.4027C52.7073 27.3872 52.4594 27.1237 52.4594 26.7209C52.4594 26.287 52.7228 26.0545 53.1412 26.0081C53.4976 25.9771 53.8695 26.0081 54.2259 26.0081C54.5978 26.0081 54.9542 25.9771 55.3106 26.0236C55.7135 26.07 55.9924 26.318 55.9924 26.7518C55.9924 27.1392 55.729 27.3872 55.3416 27.4027ZM63.9262 19.004C63.9107 19.6858 63.4303 20.1972 62.795 20.3831C62.1597 20.5691 61.8343 20.3366 61.8343 19.6703C61.8188 18.849 61.8343 18.0123 61.8343 17.191C61.8343 16.3387 61.8188 15.502 61.8343 14.6497C61.8343 14.0299 62.1132 13.8284 62.7175 13.9524C63.3838 14.0919 63.9107 14.6342 63.9262 15.3315C63.9572 16.5247 63.9572 17.7643 63.9262 19.004Z" fill="black"/>
<path d="M48.4932 13.224C48.5087 13.7664 48.0128 14.2622 47.4705 14.2622C46.9436 14.2622 46.4787 13.8129 46.4478 13.286C46.4168 12.7436 46.8816 12.2323 47.424 12.2168C47.9818 12.2168 48.4777 12.6817 48.4932 13.224Z" fill="black"/>
<path d="M51.8544 13.2552C51.8544 13.813 51.374 14.2779 50.8162 14.2779C50.2893 14.2624 49.8245 13.813 49.809 13.2861C49.7935 12.7438 50.2583 12.2479 50.8162 12.2479C51.374 12.2324 51.8544 12.6973 51.8544 13.2552Z" fill="black"/>
<path d="M55.2333 13.2086C55.2643 13.751 54.7994 14.2469 54.2416 14.2779C53.6992 14.2933 53.2033 13.813 53.1879 13.2706C53.1724 12.7283 53.6682 12.2324 54.2106 12.2324C54.7374 12.2324 55.2023 12.6818 55.2333 13.2086Z" fill="black"/>
<path d="M58.254 13.147C58.254 12.1088 58.2695 11.0706 58.254 10.0324C58.2075 8.48284 56.9833 7.24318 55.4338 7.22769C52.3656 7.21219 49.313 7.21219 46.2448 7.22769C44.6953 7.24318 43.4556 8.48284 43.4246 10.0324C43.3936 12.1088 43.3936 14.2008 43.4246 16.2772C43.4401 17.5168 44.2769 18.5705 45.47 18.9424C46.4153 19.2369 46.4153 19.2369 46.4153 20.2286C46.4153 20.3061 46.4153 20.3835 46.4153 20.461C46.3998 21.1428 46.6167 21.6852 47.2675 21.9641C47.9339 22.243 48.5072 22.0261 48.9876 21.5302C49.6694 20.8484 50.3667 20.1821 51.033 19.4848C51.3119 19.1904 51.5908 19.0664 51.9937 19.0819C53.0784 19.0974 54.1476 19.0974 55.2323 19.0819C57.0453 19.0509 58.223 17.8577 58.254 16.0602C58.2695 15.0685 58.254 14.1078 58.254 13.147ZM56.8749 15.8898C56.8749 17.0984 56.3015 17.6563 55.1084 17.6718C54.0082 17.6873 52.908 17.7028 51.8078 17.6718C51.157 17.6563 50.6611 17.8267 50.2272 18.3226C49.6384 18.9889 48.9876 19.5778 48.3522 20.2131C48.2283 20.337 48.0733 20.461 47.8874 20.6315C47.7479 19.9806 47.8254 19.4073 47.8099 18.834C47.7944 17.9042 47.593 17.7028 46.6942 17.6873C45.3151 17.6563 44.8037 17.1449 44.8037 15.7968C44.8037 13.9993 44.8037 12.2173 44.8037 10.4198C44.8037 9.19564 45.3771 8.6223 46.6167 8.6223C49.4369 8.6223 52.2417 8.6223 55.0619 8.6223C56.3015 8.6223 56.8749 9.18014 56.8749 10.4198C56.8749 12.2328 56.8749 14.0613 56.8749 15.8898Z" fill="black"/>
<path d="M48.4932 13.224C48.5087 13.7664 48.0128 14.2622 47.4705 14.2622C46.9436 14.2622 46.4787 13.8129 46.4478 13.286C46.4168 12.7436 46.8816 12.2323 47.424 12.2168C47.9818 12.2168 48.4777 12.6817 48.4932 13.224Z" fill="black"/>
<path d="M51.8544 13.2552C51.8544 13.813 51.374 14.2779 50.8162 14.2779C50.2893 14.2624 49.8245 13.813 49.809 13.2861C49.7935 12.7438 50.2583 12.2479 50.8162 12.2479C51.374 12.2324 51.8544 12.6973 51.8544 13.2552Z" fill="black"/>
<path d="M55.2333 13.2086C55.2643 13.751 54.7994 14.2469 54.2416 14.2779C53.6992 14.2933 53.2033 13.813 53.1879 13.2706C53.1724 12.7283 53.6682 12.2324 54.2106 12.2324C54.7374 12.2324 55.2023 12.6818 55.2333 13.2086Z" fill="black"/>
<path d="M48.4932 13.224C48.5087 13.7664 48.0128 14.2622 47.4705 14.2622C46.9436 14.2622 46.4787 13.8129 46.4478 13.286C46.4168 12.7436 46.8816 12.2323 47.424 12.2168C47.9818 12.2168 48.4777 12.6817 48.4932 13.224Z" fill="black"/>
<path d="M51.8544 13.2552C51.8544 13.813 51.374 14.2779 50.8162 14.2779C50.2893 14.2624 49.8245 13.813 49.809 13.2861C49.7935 12.7438 50.2583 12.2479 50.8162 12.2479C51.374 12.2324 51.8544 12.6973 51.8544 13.2552Z" fill="black"/>
<path d="M55.2333 13.2086C55.2643 13.751 54.7994 14.2469 54.2416 14.2779C53.6992 14.2933 53.2033 13.813 53.1879 13.2706C53.1724 12.7283 53.6682 12.2324 54.2106 12.2324C54.7374 12.2324 55.2023 12.6818 55.2333 13.2086Z" fill="black"/>
</g>
<script xmlns=""/></svg>