<svg width="14" height="14" viewBox="0 0 14 14" fill="none" xmlns="http://www.w3.org/2000/svg">
<path d="M7 0.568359C3.13347 0.568359 0 3.45258 0 7.01154C0 10.5705 3.13347 13.4547 7 13.4547C10.8665 13.4547 14 10.5705 14 7.01154C14 3.45258 10.8665 0.568359 7 0.568359ZM8.04928 10.1339C5.01643 8.75795 4.22587 6.28387 4.11088 5.38421C3.99589 4.48454 5.69199 3.69072 5.69199 3.69072L6.75565 5.35775C6.75565 5.35775 5.60575 5.92665 5.76386 6.23095C6.61191 7.87151 7.70431 8.48011 7.70431 8.48011C8.06366 8.59918 8.85421 7.79213 8.85421 7.79213L10.3778 9.11517C10.3922 9.11517 9.11294 10.6102 8.04928 10.1339Z" fill="#E9098D"/>
<script xmlns=""/></svg>