<svg width="85" height="67" viewBox="0 0 85 67" fill="none" xmlns="http://www.w3.org/2000/svg">
<path d="M17.3719 46.0967V37.6967H20.5159C21.2279 37.6967 21.8399 37.8127 22.3519 38.0447C22.8639 38.2687 23.2559 38.5967 23.5279 39.0287C23.8079 39.4527 23.9479 39.9687 23.9479 40.5767C23.9479 41.1687 23.8079 41.6807 23.5279 42.1127C23.2559 42.5367 22.8639 42.8647 22.3519 43.0967C21.8399 43.3207 21.2279 43.4327 20.5159 43.4327H17.8639L18.2599 43.0247V46.0967H17.3719ZM23.1079 46.0967L20.9479 43.0487H21.9079L24.0799 46.0967H23.1079ZM18.2599 43.0967L17.8639 42.6767H20.4919C21.3319 42.6767 21.9679 42.4927 22.3999 42.1247C22.8399 41.7567 23.0599 41.2407 23.0599 40.5767C23.0599 39.9047 22.8399 39.3847 22.3999 39.0167C21.9679 38.6487 21.3319 38.4647 20.4919 38.4647H17.8639L18.2599 38.0447V43.0967ZM28.5398 46.1567C27.8838 46.1567 27.3078 46.0207 26.8118 45.7487C26.3158 45.4687 25.9278 45.0887 25.6478 44.6087C25.3678 44.1207 25.2278 43.5647 25.2278 42.9407C25.2278 42.3167 25.3598 41.7647 25.6238 41.2847C25.8958 40.8047 26.2638 40.4287 26.7278 40.1567C27.1998 39.8767 27.7278 39.7367 28.3118 39.7367C28.9038 39.7367 29.4278 39.8727 29.8838 40.1447C30.3478 40.4087 30.7118 40.7847 30.9758 41.2727C31.2398 41.7527 31.3718 42.3087 31.3718 42.9407C31.3718 42.9807 31.3678 43.0247 31.3598 43.0727C31.3598 43.1127 31.3598 43.1567 31.3598 43.2047H25.8758V42.5687H30.9038L30.5678 42.8207C30.5678 42.3647 30.4678 41.9607 30.2678 41.6087C30.0758 41.2487 29.8118 40.9687 29.4758 40.7687C29.1398 40.5687 28.7518 40.4687 28.3118 40.4687C27.8798 40.4687 27.4918 40.5687 27.1478 40.7687C26.8038 40.9687 26.5358 41.2487 26.3438 41.6087C26.1518 41.9687 26.0558 42.3807 26.0558 42.8447V42.9767C26.0558 43.4567 26.1598 43.8807 26.3678 44.2487C26.5838 44.6087 26.8798 44.8927 27.2558 45.1007C27.6398 45.3007 28.0758 45.4007 28.5638 45.4007C28.9478 45.4007 29.3038 45.3327 29.6318 45.1967C29.9678 45.0607 30.2558 44.8527 30.4958 44.5727L30.9758 45.1247C30.6958 45.4607 30.3438 45.7167 29.9198 45.8927C29.5038 46.0687 29.0438 46.1567 28.5398 46.1567ZM35.098 46.1567C34.506 46.1567 34.05 45.9967 33.73 45.6767C33.41 45.3567 33.25 44.9047 33.25 44.3207V38.4047H34.102V44.2727C34.102 44.6407 34.194 44.9247 34.378 45.1247C34.57 45.3247 34.842 45.4247 35.194 45.4247C35.57 45.4247 35.882 45.3167 36.13 45.1007L36.43 45.7127C36.262 45.8647 36.058 45.9767 35.818 46.0487C35.586 46.1207 35.346 46.1567 35.098 46.1567ZM32.122 40.5047V39.7967H36.022V40.5047H32.122ZM40.585 46.1567C40.049 46.1567 39.581 46.0567 39.181 45.8567C38.781 45.6567 38.469 45.3567 38.245 44.9567C38.029 44.5567 37.921 44.0567 37.921 43.4567V39.7967H38.773V43.3607C38.773 44.0327 38.937 44.5407 39.265 44.8847C39.601 45.2207 40.069 45.3887 40.669 45.3887C41.109 45.3887 41.489 45.3007 41.809 45.1247C42.137 44.9407 42.385 44.6767 42.553 44.3327C42.729 43.9887 42.817 43.5767 42.817 43.0967V39.7967H43.669V46.0967H42.853V44.3687L42.985 44.6807C42.785 45.1447 42.473 45.5087 42.049 45.7727C41.633 46.0287 41.145 46.1567 40.585 46.1567ZM46.0435 46.0967V39.7967H46.8595V41.5127L46.7755 41.2127C46.9515 40.7327 47.2475 40.3687 47.6635 40.1207C48.0795 39.8647 48.5955 39.7367 49.2115 39.7367V40.5647C49.1795 40.5647 49.1475 40.5647 49.1155 40.5647C49.0835 40.5567 49.0515 40.5527 49.0195 40.5527C48.3555 40.5527 47.8355 40.7567 47.4595 41.1647C47.0835 41.5647 46.8955 42.1367 46.8955 42.8807V46.0967H46.0435ZM53.9821 39.7367C54.4941 39.7367 54.9421 39.8367 55.3261 40.0367C55.7181 40.2287 56.0221 40.5247 56.2381 40.9247C56.4621 41.3247 56.5741 41.8287 56.5741 42.4367V46.0967H55.7221V42.5207C55.7221 41.8567 55.5541 41.3567 55.2181 41.0207C54.8901 40.6767 54.4261 40.5047 53.8261 40.5047C53.3781 40.5047 52.9861 40.5967 52.6501 40.7807C52.3221 40.9567 52.0661 41.2167 51.8821 41.5607C51.7061 41.8967 51.6181 42.3047 51.6181 42.7847V46.0967H50.7661V39.7967H51.5821V41.5247L51.4501 41.2007C51.6501 40.7447 51.9701 40.3887 52.4101 40.1327C52.8501 39.8687 53.3741 39.7367 53.9821 39.7367ZM64.2361 46.1687C63.6921 46.1687 63.2081 46.0807 62.7841 45.9047C62.3601 45.7207 62.0241 45.4687 61.7761 45.1487C61.5361 44.8287 61.4161 44.4567 61.4161 44.0327C61.4161 43.6727 61.4961 43.3447 61.6561 43.0487C61.8161 42.7447 62.0721 42.4487 62.4241 42.1607C62.7841 41.8647 63.2601 41.5567 63.8521 41.2367C64.3561 40.9567 64.7481 40.7167 65.0281 40.5167C65.3161 40.3087 65.5201 40.1127 65.6401 39.9287C65.7601 39.7367 65.8201 39.5327 65.8201 39.3167C65.8201 39.0047 65.7121 38.7527 65.4961 38.5607C65.2881 38.3687 64.9881 38.2727 64.5961 38.2727C64.1721 38.2727 63.8441 38.3807 63.6121 38.5967C63.3801 38.8047 63.2641 39.0767 63.2641 39.4127C63.2641 39.5807 63.2881 39.7407 63.3361 39.8927C63.3921 40.0447 63.4921 40.2127 63.6361 40.3967C63.7881 40.5807 63.9961 40.8127 64.2601 41.0927L68.7001 45.6647L68.2081 46.2287L63.5761 41.4647C63.2961 41.1687 63.0721 40.9127 62.9041 40.6967C62.7441 40.4727 62.6321 40.2607 62.5681 40.0607C62.5041 39.8607 62.4721 39.6487 62.4721 39.4247C62.4721 39.0647 62.5561 38.7527 62.7241 38.4887C62.9001 38.2167 63.1481 38.0087 63.4681 37.8647C63.7881 37.7127 64.1641 37.6367 64.5961 37.6367C64.9881 37.6367 65.3281 37.7047 65.6161 37.8407C65.9121 37.9687 66.1401 38.1567 66.3001 38.4047C66.4681 38.6527 66.5521 38.9527 66.5521 39.3047C66.5521 39.6087 66.4761 39.8927 66.3241 40.1567C66.1801 40.4207 65.9401 40.6807 65.6041 40.9367C65.2681 41.1847 64.8121 41.4647 64.2361 41.7767C63.7321 42.0567 63.3321 42.3127 63.0361 42.5447C62.7481 42.7767 62.5441 43.0047 62.4241 43.2287C62.3041 43.4447 62.2441 43.6847 62.2441 43.9487C62.2441 44.2527 62.3281 44.5207 62.4961 44.7527C62.6721 44.9767 62.9121 45.1527 63.2161 45.2807C63.5281 45.4007 63.8841 45.4607 64.2841 45.4607C64.8441 45.4607 65.3441 45.3447 65.7841 45.1127C66.2241 44.8807 66.5921 44.5287 66.8881 44.0567C67.1921 43.5847 67.4121 42.9927 67.5481 42.2807L68.2321 42.4967C68.0801 43.2967 67.8201 43.9687 67.4521 44.5127C67.0841 45.0567 66.6281 45.4687 66.0841 45.7487C65.5401 46.0287 64.9241 46.1687 64.2361 46.1687ZM2.28402 62.0967V53.6967H5.42802C6.14002 53.6967 6.75202 53.8127 7.26402 54.0447C7.77602 54.2687 8.16802 54.5967 8.44002 55.0287C8.72002 55.4527 8.86002 55.9687 8.86002 56.5767C8.86002 57.1687 8.72002 57.6807 8.44002 58.1127C8.16802 58.5367 7.77602 58.8647 7.26402 59.0967C6.75202 59.3207 6.14002 59.4327 5.42802 59.4327H2.77602L3.17202 59.0247V62.0967H2.28402ZM8.02002 62.0967L5.86002 59.0487H6.82002L8.99202 62.0967H8.02002ZM3.17202 59.0967L2.77602 58.6767H5.40402C6.24402 58.6767 6.88002 58.4927 7.31202 58.1247C7.75202 57.7567 7.97202 57.2407 7.97202 56.5767C7.97202 55.9047 7.75202 55.3847 7.31202 55.0167C6.88002 54.6487 6.24402 54.4647 5.40402 54.4647H2.77602L3.17202 54.0447V59.0967ZM13.4519 62.1567C12.7959 62.1567 12.2199 62.0207 11.7239 61.7487C11.2279 61.4687 10.8399 61.0887 10.5599 60.6087C10.2799 60.1207 10.1399 59.5647 10.1399 58.9407C10.1399 58.3167 10.2719 57.7647 10.5359 57.2847C10.8079 56.8047 11.1759 56.4287 11.6399 56.1567C12.1119 55.8767 12.6399 55.7367 13.2239 55.7367C13.8159 55.7367 14.3399 55.8727 14.7959 56.1447C15.2599 56.4087 15.6239 56.7847 15.8879 57.2727C16.1519 57.7527 16.2839 58.3087 16.2839 58.9407C16.2839 58.9807 16.2799 59.0247 16.2719 59.0727C16.2719 59.1127 16.2719 59.1567 16.2719 59.2047H10.7879V58.5687H15.8159L15.4799 58.8207C15.4799 58.3647 15.3799 57.9607 15.1799 57.6087C14.9879 57.2487 14.7239 56.9687 14.3879 56.7687C14.0519 56.5687 13.6639 56.4687 13.2239 56.4687C12.7919 56.4687 12.4039 56.5687 12.0599 56.7687C11.7159 56.9687 11.4479 57.2487 11.2559 57.6087C11.0639 57.9687 10.9679 58.3807 10.9679 58.8447V58.9767C10.9679 59.4567 11.0719 59.8807 11.2799 60.2487C11.4959 60.6087 11.7919 60.8927 12.1679 61.1007C12.5519 61.3007 12.9879 61.4007 13.4759 61.4007C13.8599 61.4007 14.2159 61.3327 14.5439 61.1967C14.8799 61.0607 15.1679 60.8527 15.4079 60.5727L15.8879 61.1247C15.6079 61.4607 15.2559 61.7167 14.8319 61.8927C14.4159 62.0687 13.9559 62.1567 13.4519 62.1567ZM18.1621 62.0967V55.0047C18.1621 54.4447 18.3261 53.9927 18.6541 53.6487C18.9821 53.3047 19.4541 53.1327 20.0701 53.1327C20.3101 53.1327 20.5421 53.1647 20.7661 53.2287C20.9901 53.2927 21.1781 53.3927 21.3301 53.5287L21.0421 54.1647C20.9221 54.0607 20.7821 53.9847 20.6221 53.9367C20.4621 53.8807 20.2901 53.8527 20.1061 53.8527C19.7461 53.8527 19.4701 53.9527 19.2781 54.1527C19.0861 54.3527 18.9901 54.6487 18.9901 55.0407V56.0007L19.0141 56.3967V62.0967H18.1621ZM17.0341 56.5047V55.7967H20.9341V56.5047H17.0341ZM24.6885 62.1567C24.1525 62.1567 23.6845 62.0567 23.2845 61.8567C22.8845 61.6567 22.5725 61.3567 22.3485 60.9567C22.1325 60.5567 22.0245 60.0567 22.0245 59.4567V55.7967H22.8765V59.3607C22.8765 60.0327 23.0405 60.5407 23.3685 60.8847C23.7045 61.2207 24.1725 61.3887 24.7725 61.3887C25.2125 61.3887 25.5925 61.3007 25.9125 61.1247C26.2405 60.9407 26.4885 60.6767 26.6565 60.3327C26.8325 59.9887 26.9205 59.5767 26.9205 59.0967V55.7967H27.7725V62.0967H26.9565V60.3687L27.0885 60.6807C26.8885 61.1447 26.5765 61.5087 26.1525 61.7727C25.7365 62.0287 25.2485 62.1567 24.6885 62.1567ZM33.363 55.7367C33.875 55.7367 34.323 55.8367 34.707 56.0367C35.099 56.2287 35.403 56.5247 35.619 56.9247C35.843 57.3247 35.955 57.8287 35.955 58.4367V62.0967H35.103V58.5207C35.103 57.8567 34.935 57.3567 34.599 57.0207C34.271 56.6767 33.807 56.5047 33.207 56.5047C32.759 56.5047 32.367 56.5967 32.031 56.7807C31.703 56.9567 31.447 57.2167 31.263 57.5607C31.087 57.8967 30.999 58.3047 30.999 58.7847V62.0967H30.147V55.7967H30.963V57.5247L30.831 57.2007C31.031 56.7447 31.351 56.3887 31.791 56.1327C32.231 55.8687 32.755 55.7367 33.363 55.7367ZM40.7644 62.1567C40.1644 62.1567 39.6244 62.0207 39.1444 61.7487C38.6724 61.4767 38.3004 61.1007 38.0284 60.6207C37.7564 60.1327 37.6204 59.5727 37.6204 58.9407C37.6204 58.3007 37.7564 57.7407 38.0284 57.2607C38.3004 56.7807 38.6724 56.4087 39.1444 56.1447C39.6244 55.8727 40.1644 55.7367 40.7644 55.7367C41.3164 55.7367 41.8084 55.8607 42.2404 56.1087C42.6804 56.3567 43.0284 56.7207 43.2844 57.2007C43.5484 57.6727 43.6804 58.2527 43.6804 58.9407C43.6804 59.6207 43.5524 60.2007 43.2964 60.6807C43.0404 61.1607 42.6924 61.5287 42.2524 61.7847C41.8204 62.0327 41.3244 62.1567 40.7644 62.1567ZM40.8244 61.4007C41.2724 61.4007 41.6724 61.3007 42.0244 61.1007C42.3844 60.8927 42.6644 60.6047 42.8644 60.2367C43.0724 59.8607 43.1764 59.4287 43.1764 58.9407C43.1764 58.4447 43.0724 58.0127 42.8644 57.6447C42.6644 57.2767 42.3844 56.9927 42.0244 56.7927C41.6724 56.5847 41.2724 56.4807 40.8244 56.4807C40.3844 56.4807 39.9884 56.5847 39.6364 56.7927C39.2844 56.9927 39.0044 57.2767 38.7964 57.6447C38.5884 58.0127 38.4844 58.4447 38.4844 58.9407C38.4844 59.4287 38.5884 59.8607 38.7964 60.2367C39.0044 60.6047 39.2844 60.8927 39.6364 61.1007C39.9884 61.3007 40.3844 61.4007 40.8244 61.4007ZM43.2004 62.0967V60.2007L43.2844 58.9287L43.1644 57.6567V53.1927H44.0164V62.0967H43.2004ZM49.7098 62.0967V53.6967H52.8538C53.5658 53.6967 54.1778 53.8127 54.6898 54.0447C55.2018 54.2687 55.5938 54.5967 55.8658 55.0287C56.1458 55.4527 56.2858 55.9687 56.2858 56.5767C56.2858 57.1687 56.1458 57.6807 55.8658 58.1127C55.5938 58.5367 55.2018 58.8647 54.6898 59.0967C54.1778 59.3287 53.5658 59.4447 52.8538 59.4447H50.2018L50.5978 59.0247V62.0967H49.7098ZM50.5978 59.0967L50.2018 58.6647H52.8298C53.6698 58.6647 54.3058 58.4847 54.7378 58.1247C55.1778 57.7567 55.3978 57.2407 55.3978 56.5767C55.3978 55.9047 55.1778 55.3847 54.7378 55.0167C54.3058 54.6487 53.6698 54.4647 52.8298 54.4647H50.2018L50.5978 54.0447V59.0967ZM60.5587 62.1567C59.9507 62.1567 59.4027 62.0207 58.9147 61.7487C58.4347 61.4687 58.0547 61.0887 57.7747 60.6087C57.4947 60.1207 57.3547 59.5647 57.3547 58.9407C57.3547 58.3087 57.4947 57.7527 57.7747 57.2727C58.0547 56.7927 58.4347 56.4167 58.9147 56.1447C59.3947 55.8727 59.9427 55.7367 60.5587 55.7367C61.1827 55.7367 61.7347 55.8727 62.2147 56.1447C62.7027 56.4167 63.0827 56.7927 63.3547 57.2727C63.6347 57.7527 63.7747 58.3087 63.7747 58.9407C63.7747 59.5647 63.6347 60.1207 63.3547 60.6087C63.0827 61.0887 62.7027 61.4687 62.2147 61.7487C61.7267 62.0207 61.1747 62.1567 60.5587 62.1567ZM60.5587 61.4007C61.0147 61.4007 61.4187 61.3007 61.7707 61.1007C62.1227 60.8927 62.3987 60.6047 62.5987 60.2367C62.8067 59.8607 62.9107 59.4287 62.9107 58.9407C62.9107 58.4447 62.8067 58.0127 62.5987 57.6447C62.3987 57.2767 62.1227 56.9927 61.7707 56.7927C61.4187 56.5847 61.0187 56.4807 60.5707 56.4807C60.1227 56.4807 59.7227 56.5847 59.3707 56.7927C59.0187 56.9927 58.7387 57.2767 58.5307 57.6447C58.3227 58.0127 58.2187 58.4447 58.2187 58.9407C58.2187 59.4287 58.3227 59.8607 58.5307 60.2367C58.7387 60.6047 59.0187 60.8927 59.3707 61.1007C59.7227 61.3007 60.1187 61.4007 60.5587 61.4007ZM65.5142 62.0967V53.1927H66.3662V62.0967H65.5142ZM68.7368 62.0967V55.7967H69.5888V62.0967H68.7368ZM69.1688 54.4047C68.9928 54.4047 68.8448 54.3447 68.7248 54.2247C68.6048 54.1047 68.5448 53.9607 68.5448 53.7927C68.5448 53.6247 68.6048 53.4847 68.7248 53.3727C68.8448 53.2527 68.9928 53.1927 69.1688 53.1927C69.3448 53.1927 69.4928 53.2487 69.6128 53.3607C69.7328 53.4727 69.7928 53.6127 69.7928 53.7807C69.7928 53.9567 69.7328 54.1047 69.6128 54.2247C69.5008 54.3447 69.3528 54.4047 69.1688 54.4047ZM74.5755 62.1567C73.9515 62.1567 73.3915 62.0207 72.8955 61.7487C72.4075 61.4687 72.0235 61.0887 71.7435 60.6087C71.4635 60.1207 71.3235 59.5647 71.3235 58.9407C71.3235 58.3087 71.4635 57.7527 71.7435 57.2727C72.0235 56.7927 72.4075 56.4167 72.8955 56.1447C73.3915 55.8727 73.9515 55.7367 74.5755 55.7367C75.1115 55.7367 75.5955 55.8407 76.0275 56.0487C76.4595 56.2567 76.7995 56.5687 77.0475 56.9847L76.4115 57.4167C76.1955 57.0967 75.9275 56.8607 75.6075 56.7087C75.2875 56.5567 74.9395 56.4807 74.5635 56.4807C74.1155 56.4807 73.7115 56.5847 73.3515 56.7927C72.9915 56.9927 72.7075 57.2767 72.4995 57.6447C72.2915 58.0127 72.1875 58.4447 72.1875 58.9407C72.1875 59.4367 72.2915 59.8687 72.4995 60.2367C72.7075 60.6047 72.9915 60.8927 73.3515 61.1007C73.7115 61.3007 74.1155 61.4007 74.5635 61.4007C74.9395 61.4007 75.2875 61.3247 75.6075 61.1727C75.9275 61.0207 76.1955 60.7887 76.4115 60.4767L77.0475 60.9087C76.7995 61.3167 76.4595 61.6287 76.0275 61.8447C75.5955 62.0527 75.1115 62.1567 74.5755 62.1567ZM78.6755 64.4847C78.3795 64.4847 78.0955 64.4367 77.8235 64.3407C77.5595 64.2447 77.3315 64.1007 77.1395 63.9087L77.5355 63.2727C77.6955 63.4247 77.8675 63.5407 78.0515 63.6207C78.2435 63.7087 78.4555 63.7527 78.6875 63.7527C78.9675 63.7527 79.2075 63.6727 79.4075 63.5127C79.6155 63.3607 79.8115 63.0887 79.9955 62.6967L80.4035 61.7727L80.4995 61.6407L83.0915 55.7967H83.9315L80.7755 62.8527C80.5995 63.2607 80.4035 63.5847 80.1875 63.8247C79.9795 64.0647 79.7515 64.2327 79.5035 64.3287C79.2555 64.4327 78.9795 64.4847 78.6755 64.4847ZM80.3555 62.2767L77.4515 55.7967H78.3395L80.9075 61.5807L80.3555 62.2767Z" fill="#414141"/>
<path d="M16.0039 47.5967H68.8561V48.1967H16.0039V47.5967ZM0.916016 63.5967H83.9435V64.1967H0.916016V63.5967Z" fill="#414141"/>
<g opacity="0.82">
<path d="M49.2354 3.42995C49.9398 4.08406 50.5772 4.70464 51.1474 5.37553C56.0953 11.2291 55.3573 20.6048 49.5541 25.6029C44.4888 29.9637 37.3271 29.6618 32.5637 24.8817C26.358 18.6592 27.2637 7.84106 34.4422 2.84291C37.109 0.98119 40.0777 0.293526 43.298 0.763151C43.7676 0.83024 44.2037 0.981189 44.1198 1.56822C44.0528 2.10493 43.6167 2.1888 43.1638 2.10493C37.629 1.24955 33.134 4.53692 31.1045 8.74677C28.639 13.8623 29.6453 20.1016 33.6036 24.0431C37.998 28.4207 44.8243 28.4207 49.2354 24.0599C54.6025 18.7431 54.3174 9.5686 48.6484 4.73818C48.4974 4.604 48.3465 4.35242 48.1452 4.43628C47.9104 4.52014 48.0278 4.80527 48.0278 5.00654C48.011 5.50971 48.0278 6.01288 47.9942 6.49927C47.9775 6.90181 47.7594 7.17017 47.3234 7.17017C46.8873 7.15339 46.686 6.88504 46.686 6.48251C46.686 5.34199 46.686 4.1847 46.686 3.04418C46.686 2.59133 46.9376 2.35652 47.3569 2.28943C48.4639 2.12171 49.5876 1.95398 50.6946 1.80303C51.1139 1.73594 51.4661 1.87012 51.55 2.32297C51.6338 2.82614 51.3319 3.04418 50.8959 3.12805C50.3759 3.21191 49.8392 3.21191 49.2354 3.42995Z" fill="black"/>
<path d="M49.7701 14.6C49.7701 13.2415 49.7701 11.8829 49.7701 10.5411C49.7701 10.1386 49.6359 9.87023 49.267 9.68574C46.8182 8.51168 44.3862 7.33762 41.9542 6.14679C41.602 5.97907 41.2833 5.97907 40.9311 6.14679C38.4991 7.33762 36.0504 8.51168 33.6184 9.68574C33.2494 9.85346 33.1152 10.1386 33.1152 10.5411C33.1488 13.1912 33.1823 15.8412 33.1823 18.4912C33.1823 19.0782 33.3836 19.4472 33.9035 19.7491C36.2517 21.0909 38.5998 22.4662 40.9311 23.8416C41.2666 24.0428 41.5685 24.0764 41.9207 23.8751C44.3191 22.4662 46.7008 21.0741 49.0992 19.682C49.5353 19.4305 49.703 19.1118 49.703 18.6086C49.6863 17.2668 49.703 15.9418 49.703 14.6H49.7701ZM40.7969 21.5941C40.7969 21.9966 40.7131 22.1476 40.3105 21.896C38.5327 20.8393 36.7548 19.8162 34.9602 18.7763C34.6415 18.5918 34.5409 18.357 34.5409 18.0216C34.5577 17.0488 34.5409 16.0592 34.5409 15.0864H34.457C34.457 14.0801 34.4738 13.0905 34.457 12.0842C34.457 11.6313 34.5912 11.581 34.9602 11.8158C36.7716 12.9228 38.583 14.0298 40.4112 15.12C40.6963 15.2877 40.7969 15.5057 40.7969 15.8412C40.7802 17.77 40.7802 19.682 40.7969 21.5941ZM41.9039 13.9459C41.602 14.1304 41.3672 14.1807 41.0485 13.9795C39.2707 12.8893 37.4928 11.8158 35.6982 10.7424C35.3795 10.5411 35.2285 10.4069 35.6814 10.1889C37.4928 9.33352 39.2874 8.44459 41.0821 7.57243C41.1995 7.52212 41.3169 7.4718 41.4343 7.42148C41.5852 7.48857 41.753 7.53889 41.9039 7.62275C43.6315 8.46136 45.359 9.28321 47.0866 10.1218C47.2543 10.2057 47.5059 10.2392 47.5059 10.4573C47.5059 10.625 47.2878 10.6753 47.1369 10.7592C45.3926 11.8158 43.6315 12.8725 41.9039 13.9459ZM48.4283 15.1367H48.3445C48.3445 16.076 48.3277 17.0152 48.3445 17.9545C48.3613 18.3738 48.2271 18.6421 47.8413 18.8602C46.097 19.8498 44.3694 20.8561 42.6587 21.8792C42.1555 22.1811 42.0884 22.0134 42.0884 21.5102C42.1052 19.6485 42.1052 17.8035 42.0884 15.9418C42.0884 15.5393 42.2226 15.2877 42.558 15.0864C44.3191 14.0465 46.0467 12.9731 47.8078 11.9165C48.3612 11.581 48.4116 11.6146 48.4283 12.2519C48.4283 13.2247 48.4283 14.1807 48.4283 15.1367Z" fill="black"/>
</g>
<script xmlns=""/></svg>