<svg xmlns="http://www.w3.org/2000/svg" width="296.516" height="285.654" viewBox="0 0 296.516 285.654"><g transform="translate(-886.529 -159.846)"><g transform="translate(886.529 159.846)" style="isolation:isolate"><path d="M1000.655,564.659a1.458,1.458,0,0,0-1.44-1.142c-.8-1.555-3.7-2.523-3.7-2.523l-10.631-4.716c.02-.019.038-.037,0,0L976.8,484a122.88,122.88,0,0,0,12.26-3.975L986.6,467.242c-.618-4.808-6.108-23.835-9.314-33.808,4.961-4.635,15.412-21.791,15.555-31.579.037-2.576-5.9-13.057-9.187-19.071a30.586,30.586,0,0,0,3.39-2.848l.173-.179-.142-.205c-.514-.739-12.642-18.153-17.883-21.72-1.724-1.174-15.305-6.513-17.332-7.057a13.711,13.711,0,0,0,2.748-5.249l.183,1.491A22.124,22.124,0,0,0,962,345.2s-1.764-11.7-3.432-17.308c-1.854-6.237-8.372-8.1-8.372-8.1s-11.008-2.976-15.1,3.334c-3.439,4.606-8.207,18.591-8.207,18.591a12.172,12.172,0,0,0,6.4,3.724c.05-.264.173-.753.291-1.2a19,19,0,0,0,3.057,7.328c-1.085.283-13.574,4.329-14.633,4.774-6.711,2.011-23.377,5.9-45.805,3.409-29.512-3.279-64.825-8.576-85.508,2.775,0,0,15.891,1.009,19.422,8.828s-14.63,19.674-13.873,38.844c.324,8.2,2.68,16.616,5.27,23.556a66.219,66.219,0,0,0,20.259,28.368c2.751,2.229,5.446,4.036,7.514,4.632,0,0-2.018-14.769,9.333-21.664s24.467,4.529,40.61-3.453c8.753-4.328,15.8-15.8,20.418-25.4,3.5,7.366,8.341,14.459,11.268,17.193-3.206,9.974-8.7,29-9.314,33.808l-2.464,12.779A122.882,122.882,0,0,0,911.4,484L903.558,556.5c-.082-.074-.164-.145-.245-.225l-10.633,4.716s-2.9.968-3.7,2.523a1.458,1.458,0,0,0-1.44,1.142,1.426,1.426,0,0,0,1.4,1.707h29.119a.387.387,0,0,0,.387-.387v-1.9a.566.566,0,0,0-.566-.566h-.111v-5.125a3.642,3.642,0,0,0-.254-.292l17.989-69.54,8.291.542c.25.016.5.021.752.012,2.769-.093,5.491-.286,8.141-.554L970.68,558.1a3.674,3.674,0,0,0-.254.292v5.125h-.111a.566.566,0,0,0-.566.566v1.9a.387.387,0,0,0,.387.387h29.119A1.427,1.427,0,0,0,1000.655,564.659Zm-84.8-144.86c-2.286-6.5-4.92-16.137-3.894-17.743,1.284-2.009,4.27-7.417,7.015-11.879.409.14.824.279,1.246.413l.263.083,2.083.572,3.228,8.627A153.982,153.982,0,0,0,915.852,419.8Zm56.591-.275a153.081,153.081,0,0,0-9.825-19.651l3.176-8.49,2.135-.71.263-.083c.363-.115.719-.232,1.071-.352,2.736,4.45,5.7,9.819,6.978,11.818C977.253,403.64,974.706,413.033,972.443,419.525Z" transform="translate(-790.693 -319.095)" fill="#edc6d8" opacity="0.5" style="mix-blend-mode:color-burn;isolation:isolate"/><path d="M1396.3,1599.913l-111.74-37.851h29.119l98.666,37.613Z" transform="translate(-1186.315 -1314.79)" fill="#edc6d8" opacity="0.5" style="mix-blend-mode:color-burn;isolation:isolate"/><path d="M1692.711,1562.067l71.032,38.382,14.714-.289L1722,1562.067Z" transform="translate(-1513.266 -1314.794)" fill="#edc6d8" opacity="0.5" style="mix-blend-mode:color-burn;isolation:isolate"/></g><g transform="translate(705.66 -34.721)"><g transform="translate(351.296 243.364)"><g transform="translate(31.724 134.782)"><path d="M1889.206,1456.868l-2.817,93.733h-18.38l-7.908-93.733Z" transform="translate(-1860.101 -1456.868)" fill="#fff"/></g><g transform="translate(36.419 190.437)"><path d="M1873.954,1621.072l3.213,38.077h18.38l1.135-37.759A49.815,49.815,0,0,1,1873.954,1621.072Z" transform="translate(-1873.954 -1621.072)" fill="#d2568a" stroke="#eab342" stroke-width="1"/></g><g transform="translate(24.612 224.627)"><path d="M1866.876,1734.175l-25.492-.4a3.99,3.99,0,0,1-.554-.122c-2.389-.774-1.581-2.285-1.581-2.285l14.447-9.419,6.581,2.978s10.793,1.8,12.337-1.259l-.218,8S1873.183,1734.235,1866.876,1734.175Z" transform="translate(-1839.118 -1721.946)" fill="#e3a0bd"/></g><g transform="translate(58.632 137.857)"><path d="M1939.492,1465.94l34.051,90.91h18.38l-23.326-90.91Z" transform="translate(-1939.492 -1465.94)" fill="#fff"/></g><g transform="translate(83.151 52.841)"><path d="M2011.832,1215.11s.411,16.425.941,18.665c1.2,5.063,21.564,45.64,21.564,45.64l11.99-6.482-20.265-49.872Z" transform="translate(-2011.832 -1215.11)" fill="#e49fbc"/><g transform="translate(21.571 57.333)"><path d="M2083.379,1405.157a1.337,1.337,0,0,0,1.015-1.509l-.617-4.288a.316.316,0,0,1,.17-.328h0a.317.317,0,0,1,.45.2l1.744,6.157a1.054,1.054,0,0,0,1.55.676h0a1.7,1.7,0,0,0,.824-1.889l-1.779-6.278a.318.318,0,0,1,.162-.369l.1-.049a.318.318,0,0,1,.428.138l3.292,6.446a1.338,1.338,0,0,0,1.7.647,1.307,1.307,0,0,0,.649-1.8l-3.312-6.486a.316.316,0,0,1,.138-.427l.3-.155a.318.318,0,0,1,.406.1l3.834,5.574a1.338,1.338,0,0,0,1.771.421,1.308,1.308,0,0,0,.41-1.865s-5.392-8.814-6.122-10.261l3.75.474a1.307,1.307,0,0,0,1.646-.841h0a1.308,1.308,0,0,0-.841-1.647l-7.653-3.506c-.448-.145-1.288.281-1.882.785a106.492,106.492,0,0,0-10.036,4.472l4,7.213a19.61,19.61,0,0,1,2.258,6.71l.085.591A1.306,1.306,0,0,0,2083.379,1405.157Z" transform="translate(-2075.473 -1384.265)" fill="#e49fbc"/></g></g><g transform="translate(0 54.788)"><path d="M1780.824,1220.854s-13.011,23.779-14.268,29.073,20.325,40.056,20.325,40.056l12.888-6.094-15.078-30.3,14.751-23.677Z" transform="translate(-1766.503 -1220.854)" fill="#e49fbc"/></g><g transform="translate(78.88 189.952)"><path d="M1999.229,1621.6l13.8,36.852h18.38l-9.959-38.814A97.816,97.816,0,0,1,1999.229,1621.6Z" transform="translate(-1999.229 -1619.641)" fill="#d2568a" stroke="#eab342" stroke-width="1"/></g><g transform="translate(12.06 113.92)"><g transform="translate(3.534)"><path d="M1815.786,1416.721c.489-.2,4.771-1.686,8.909-3.611,3.556-1.654,3.866-11.557,2.413-13.835s-9.655-3.958-9.655-3.958-.411,7.927-3.833,10.563S1815.786,1416.721,1815.786,1416.721Z" transform="translate(-1812.511 -1395.317)" fill="#e49fbc"/></g><g transform="translate(0 9.369)"><path d="M1809.507,1422.958c-.382.218-.779.44-1.2.668h0c-1.845.461-3.858,1.013-5.207,1.389a1.386,1.386,0,0,0-.715,2.2,7.53,7.53,0,0,0,.684.743,2.441,2.441,0,0,0,1.73,2.521,2.267,2.267,0,0,0,1.631,2.55s-.165,1.8,2.14,2.085c1.6.2,6.67-2.144,9.7-4.008Z" transform="translate(-1802.085 -1422.958)" fill="#e49fbc"/></g><g transform="translate(0.7 13.374)"><path d="M1804.162,1435.914a.226.226,0,0,1-.011-.048.21.21,0,0,1,.186-.232,18.009,18.009,0,0,0,3.585-.846.21.21,0,1,1,.143.4,18.123,18.123,0,0,1-3.681.869A.211.211,0,0,1,1804.162,1435.914Z" transform="translate(-1804.149 -1434.774)" fill="#f07162"/></g><g transform="translate(2.471 15.706)"><path d="M1809.394,1443.048a.184.184,0,0,1-.015-.047.21.21,0,0,1,.17-.244,18.009,18.009,0,0,0,3.521-1.082.21.21,0,0,1,.169.385,18.16,18.16,0,0,1-3.615,1.111A.21.21,0,0,1,1809.394,1443.048Z" transform="translate(-1809.376 -1441.656)" fill="#f07162"/></g><g transform="translate(4.133 18.186)"><path d="M1814.3,1450.365a.22.22,0,0,1-.014-.047.209.209,0,0,1,.169-.244,18,18,0,0,0,3.521-1.082.21.21,0,1,1,.169.385,18.027,18.027,0,0,1-3.615,1.111A.21.21,0,0,1,1814.3,1450.365Z" transform="translate(-1814.28 -1448.974)" fill="#f07162"/></g></g><g transform="translate(2.235 34.723)"><path d="M1814.4,1161.663s33.669,1.614,37.359,2.537,13.144,9.455,19.371,23.984,9.916,23.061,9.916,23.061-12.914,7.149-18.448,9.686c0,0,15.682,77.715,17.066,82.1,0,0-43.585,23.06-89.016-1.845l12.684-102.852-9.11,14.528s-11.295-1.845-21.119-13.838C1773.1,1199.021,1793.3,1160.971,1814.4,1161.663Z" transform="translate(-1773.098 -1161.654)" fill="#d2568a"/></g><g transform="translate(91.796 224.627)"><path d="M2043.076,1734.175l25.492-.4a4.042,4.042,0,0,0,.555-.122c2.387-.774,1.58-2.285,1.58-2.285l-15.161-9.419-2.621,1.33a19.879,19.879,0,0,1-8.109,2.141c-3.081.138-6.638-.092-7.475-1.752l.218,8S2036.769,1734.235,2043.076,1734.175Z" transform="translate(-2037.337 -1721.946)" fill="#e3a0bd"/></g><g transform="translate(41.1 33.929)"><path d="M1902.671,1166.724a32.278,32.278,0,0,1-14.906-6.519c9.284-.878,25.158-.894,25.158-.894s2.05.321,14.038,3.225C1924.086,1164.728,1915.434,1169.046,1902.671,1166.724Z" transform="translate(-1887.765 -1159.311)" fill="#e49fbc"/></g><g transform="translate(19.78 34.131)"><path d="M1896.813,1219.775s-9.224-7.841-11.176-8.434-3.89-46.581-4.072-49.329a6.759,6.759,0,0,0-4.549-1.07c-.674,9.327-3.492,39.692-3.492,39.692h-20.989l.307-40.49a5.821,5.821,0,0,0-4.125.246s-5.636,40.013-6.328,47.393l-6.436,2.309-11.091,89.935c45.43,24.905,89.015,1.845,89.015,1.845C1912.495,1297.489,1896.813,1219.775,1896.813,1219.775Z" transform="translate(-1824.863 -1159.906)" fill="#fff"/></g><g transform="translate(19.53 60.606)"><path d="M1871.408,1363.417h-.007c-16.438-.417-28.345-3.474-35.441-5.965-7.119-2.5-11.837-5.317-11.837-5.787l14.257-113.426a.25.25,0,1,1,.5.062l-14.24,113.277c.564.461,4.429,2.971,11.951,5.562,6.994,2.41,18.715,5.368,34.826,5.777a.25.25,0,0,1-.006.5Z" transform="translate(-1824.124 -1238.02)" fill="#eab342"/></g><g transform="translate(32.252 61.495)"><path d="M1862.709,1245.829l-.032,0a.251.251,0,0,1-.216-.274c.006-.283-.484-2.977-.8-4.612a.25.25,0,0,1,.491-.094c.254,1.333.842,4.465.8,4.764A.251.251,0,0,1,1862.709,1245.829Z" transform="translate(-1861.659 -1240.644)" fill="#ebb0c9"/></g><g transform="translate(83.917 57.937)"><path d="M2025.369,1283.557a.249.249,0,0,1-.245-.2l-11.028-52.913a.25.25,0,0,1,.49-.1l11.027,52.914a.25.25,0,0,1-.194.3A.275.275,0,0,1,2025.369,1283.557Z" transform="translate(-2014.091 -1230.144)" fill="#f1c93c"/></g><g transform="translate(85.147 59.419)"><path d="M2017.971,1239.438a.28.28,0,0,1-.056-.006.25.25,0,0,1-.189-.3l.994-4.419a.25.25,0,1,1,.489.11l-.994,4.419A.25.25,0,0,1,2017.971,1239.438Z" transform="translate(-2017.721 -1234.518)" fill="#f1c93c"/></g><g transform="translate(45.447 74.585)"><path d="M1925.94,1279.765h-25.1a.25.25,0,0,1,0-.5h25.1a.25.25,0,1,1,0,.5Z" transform="translate(-1900.589 -1279.264)" fill="#eab342"/></g><g transform="translate(20.21 168.486)"><path d="M1869.964,1566.3c-.25,0-.5,0-.753,0a111.846,111.846,0,0,1-42.94-9.517.25.25,0,1,1,.219-.45,111.307,111.307,0,0,0,42.726,9.467c.248,0,.5,0,.748,0,23.093,0,42.872-8.85,43.072-8.941a.25.25,0,0,1,.207.456C1913.042,1557.408,1893.167,1566.3,1869.964,1566.3Z" transform="translate(-1826.13 -1556.306)" fill="#eab342"/></g><g transform="translate(37.595 204.374)"><path d="M1877.424,1662.192l.307,3.646a36.124,36.124,0,0,0,11.1,1.7,41.328,41.328,0,0,0,9.611-1.158l.1-3.452A35.06,35.06,0,0,1,1877.424,1662.192Z" transform="translate(-1877.424 -1662.192)" fill="#2d7e8b"/></g><g transform="translate(36.956 196.802)"><path d="M1897.416,1644.228l.1-3.455a34.816,34.816,0,0,1-21.981-.922l.31,3.68a35.785,35.785,0,0,0,11.733,1.912A41.414,41.414,0,0,0,1897.416,1644.228Z" transform="translate(-1875.539 -1639.851)" fill="#2d7e8b"/></g><g transform="translate(84.151 202.546)"><path d="M2034.966,1656.8a34.59,34.59,0,0,1-20.185,3.441l1.321,3.527c.927.089,1.983.149,3.16.149a38.845,38.845,0,0,0,16.545-3.837Z" transform="translate(-2014.781 -1656.796)" fill="#2d7e8b"/></g><g transform="translate(81.407 195.489)"><path d="M2027.8,1635.976c-10.063,4.844-18.472,3.721-21.117,3.172l1.349,3.6a32.629,32.629,0,0,0,4.218.268,38.8,38.8,0,0,0,16.393-3.763Z" transform="translate(-2006.686 -1635.976)" fill="#2d7e8b"/></g><g transform="translate(47.133)"><path d="M1910.984,1063.251c-4.244,5.1-5.419,25.423-5.419,25.423l1.974.183c.161-.654.782-2.513.782-2.513l.357,2.62,7.674.711,7.1-30.35S1915.228,1058.153,1910.984,1063.251Z" transform="translate(-1905.564 -1059.209)" fill="#2a7e8a"/><g transform="translate(5.586 2.024)"><path d="M1925.239,1071.028s-7.394,14.256.318,18.12l-2.108,10.652,11.862-.256,6.967-34.245s-3.451-.27-3.508.007S1925.239,1071.028,1925.239,1071.028Z" transform="translate(-1922.045 -1065.181)" fill="#e49fbc"/></g><g transform="translate(8.437 25.348)"><path d="M1930.456,1137.888l.661-3.249s5.557.795,9.358-.643C1940.476,1134,1935.008,1137.463,1930.456,1137.888Z" transform="translate(-1930.456 -1133.996)" opacity="0.67" style="mix-blend-mode:overlay;isolation:isolate"/></g><g transform="translate(13.764 0.044)"><path d="M1946.174,1062.345s.088,7.36,6.166,11.469.43,12.224.43,12.224l8.262-8.177s2.382-12.77-2.8-16.426C1954.458,1058.776,1946.319,1058.2,1946.174,1062.345Z" transform="translate(-1946.174 -1059.337)" fill="#2a7e8a"/></g><g transform="translate(13.693 3.788)"><path d="M1945.964,1072.466l3.344-2.08-2.712,2.657Z" transform="translate(-1945.964 -1070.386)" fill="#e49fbc"/></g><g transform="translate(18.771 1.178)"><path d="M1974.061,1073.1c-.133-7.509-7.822-10.418-7.822-10.418l-2.506,14.133a54.3,54.3,0,0,1-2.251,15.411l-.538,1.682a51.643,51.643,0,0,0,6.314.4c.5-1.3,1.334-3.4,1.334-3.4l.234,3.373c.76-.031,1.528-.086,2.278-.174C1971.1,1094.1,1974.169,1079.206,1974.061,1073.1Z" transform="translate(-1960.945 -1062.685)" fill="#2a7e8a"/></g><g transform="translate(19.964 14.959)"><path d="M1964.532,1106a3.309,3.309,0,1,0,3.9-2.584A3.309,3.309,0,0,0,1964.532,1106Z" transform="translate(-1964.465 -1103.345)" fill="#e49fbc"/></g><g transform="translate(22.182 16.75)"><path d="M1971.934,1112.2a1.394,1.394,0,0,0,1.493-.761,1.311,1.311,0,0,0-.213-1.6,1.56,1.56,0,0,0-1.69-.306,1.466,1.466,0,0,1,.788-.623,2.055,2.055,0,0,1,1.446.2.107.107,0,0,0,.145-.039.106.106,0,0,0-.039-.145,2.238,2.238,0,0,0-1.615-.218,1.8,1.8,0,0,0-1.076,1.021l-.164.342.318-.208a1.428,1.428,0,0,1,1.742.131,1.111,1.111,0,0,1,.171,1.35,1.171,1.171,0,0,1-1.279.649.106.106,0,1,0-.045.207Z" transform="translate(-1971.009 -1108.629)" fill="#dc84a9"/></g></g></g></g></g><script xmlns=""/></svg>